# This file uses centimeters as units for non-parametric coordinates.

mtllib pigBank.mtl
v 0.495903 -0.271230 0.359690
v 0.452864 0.222640 0.308324
v -0.453031 -0.295281 0.224653
v -0.420294 0.210728 0.272095
v -0.438824 -0.284232 -0.263710
v -0.404051 0.223362 -0.286255
v 0.516320 -0.255350 -0.342158
v 0.469720 0.235750 -0.271114
v -0.050508 -0.295687 0.300746
v -0.032559 -0.281727 -0.316227
v -0.023542 0.232321 -0.377503
v -0.045742 0.215055 0.385609
v 0.452907 -0.002556 0.380414
v -0.044940 -0.010890 0.448145
v -0.477635 -0.017755 0.297209
v -0.459536 -0.003678 -0.324957
v -0.018811 0.009432 -0.450033
v 0.474247 0.014042 -0.353182
v -0.491313 -0.365910 -0.022572
v -0.041164 -0.406073 -0.010385
v 0.597292 -0.349975 0.009457
v 0.786896 0.017996 0.023299
v 0.490368 0.406088 0.023453
v -0.054935 0.472733 0.009098
v -0.486571 0.261041 -0.008248
v -0.595974 0.032848 -0.016594
v -0.188573 -0.290288 -0.308525
v -0.240725 -0.392638 -0.015887
v -0.205799 -0.303686 0.283613
v -0.229659 -0.014563 0.417538
v -0.250135 0.216362 0.317141
v -0.259838 0.420041 0.001945
v -0.231569 0.230802 -0.321037
v -0.204992 0.004623 -0.430407
v 0.325480 -0.277963 0.353094
v 0.259636 -0.411453 -0.001756
v 0.345811 -0.262151 -0.345786
v 0.295148 0.015956 -0.410848
v 0.297261 0.240733 -0.329663
v 0.309241 0.451242 0.019206
v 0.277288 0.225198 0.356919
v 0.270756 -0.003014 0.427604
v -0.495748 -0.331135 0.100343
v -0.246144 -0.348685 0.133186
v -0.044838 -0.367341 0.164598
v 0.295296 -0.337955 0.175901
v 0.557784 -0.310346 0.184905
v 0.679100 0.010389 0.254421
v 0.487227 0.329053 0.189044
v 0.288025 0.395479 0.203291
v -0.056360 0.417328 0.198840
v -0.263825 0.388610 0.160879
v -0.474440 0.251795 0.120381
v -0.566758 -0.033867 0.127232
v -0.488645 -0.325610 -0.143839
v -0.237531 -0.341987 -0.162883
v -0.034716 -0.359467 -0.183357
v 0.305462 -0.330049 -0.173539
v 0.567994 -0.302407 -0.166019
v 0.692721 0.020983 -0.213804
v 0.496955 0.336619 -0.145352
v 0.298830 0.403883 -0.168133
v -0.045260 0.425961 -0.182716
v -0.254543 0.395830 -0.158210
v -0.466975 0.257601 -0.136242
v -0.558362 -0.027337 -0.161347
v -0.235549 -0.496072 0.132895
v -0.220035 -0.497170 0.282220
v -0.037827 -0.480345 0.176323
v -0.045570 -0.495193 0.307508
v -0.026887 -0.471836 -0.199749
v -0.026975 -0.480730 -0.331700
v -0.226777 -0.489249 -0.168638
v -0.202611 -0.483618 -0.316706
v 0.342235 -0.502685 0.359461
v 0.319944 -0.504596 0.169885
v 0.507643 -0.507676 0.170105
v 0.475059 -0.494812 0.345530
v 0.494983 -0.479316 -0.339351
v 0.517336 -0.500138 -0.163090
v 0.329937 -0.496823 -0.173638
v 0.363203 -0.486377 -0.361318
v 0.474598 -0.136743 0.363415
v 0.283871 -0.141181 0.406607
v -0.048459 -0.153860 0.399732
v -0.240993 -0.159944 0.363005
v -0.477706 -0.157041 0.271511
v -0.532415 -0.174379 0.146760
v -0.541691 -0.249558 -0.021405
v -0.522759 -0.166868 -0.185177
v -0.460916 -0.143983 -0.305627
v -0.219283 -0.143059 -0.383251
v -0.024950 -0.135575 -0.408416
v 0.307202 -0.123035 -0.395390
v 0.495091 -0.120804 -0.341033
v 0.678897 -0.139946 -0.172768
v 0.755327 -0.164544 0.018250
v 0.667895 -0.148503 0.205421
v -0.045558 0.101913 0.424352
v 0.273128 0.110397 0.422994
v 0.452147 0.109468 0.369747
v 0.629197 0.192695 0.214611
v 0.712806 0.225408 0.025836
v 0.640349 0.201369 -0.168763
v 0.472722 0.125470 -0.337526
v 0.297099 0.129040 -0.400988
v -0.020959 0.121045 -0.421242
v -0.217899 0.118009 -0.388829
v -0.445512 0.109521 -0.305672
v -0.530698 0.123415 -0.141241
v -0.550465 0.123496 -0.013219
v -0.538170 0.117604 0.115600
v -0.462663 0.096181 0.283906
v -0.240278 0.100603 0.380447
v 0.142863 -0.272254 -0.331414
v 0.126418 -0.344963 -0.178713
v 0.109374 -0.414604 -0.006199
v 0.116274 -0.352853 0.169985
v 0.123724 -0.287140 0.326512
v 0.116965 -0.148097 0.428631
v 0.112634 -0.007166 0.447317
v 0.113526 0.105953 0.432579
v 0.115364 0.219808 0.385331
v 0.115733 0.410653 0.201159
v 0.126860 0.474459 0.014426
v 0.126685 0.419171 -0.175331
v 0.137269 0.236845 -0.367650
v 0.138329 0.125244 -0.420021
v 0.138443 0.012908 -0.439883
v 0.141867 -0.128729 -0.427364
v -0.631510 -0.162468 0.123713
v -0.649164 -0.231051 -0.024112
v -0.664997 -0.053367 0.115490
v -0.687236 0.013553 -0.019686
v -0.623041 -0.155881 -0.167412
v -0.657093 -0.047220 -0.156226
v -0.668009 -0.116856 -0.022077
v -0.531544 -0.221107 -0.116313
v -0.635703 -0.205740 -0.107732
v -0.537113 -0.225438 0.075121
v -0.640618 -0.209562 0.061207
v -0.576707 0.012140 -0.111821
v -0.582245 0.007833 0.078558
v -0.671989 -0.002759 -0.104761
v -0.676936 -0.006607 0.065308
v -0.540215 -0.087808 -0.192131
v -0.550349 -0.095690 0.156253
v -0.639776 -0.101324 -0.171835
v -0.648545 -0.108144 0.129618
v -0.363861 0.300995 0.220229
v -0.350846 0.311118 -0.227171
v 0.601442 0.304672 -0.081162
v 0.595309 0.299902 0.129655
v -0.363861 0.300995 0.220229
v -0.420294 0.210728 0.272095
v -0.474440 0.251795 0.120381
v -0.466975 0.257601 -0.136242
v -0.350846 0.311118 -0.227171
v -0.404051 0.223362 -0.286255
v -0.363861 0.300995 0.220229
v -0.420294 0.210728 0.272095
v -0.474440 0.251795 0.120381
v -0.250135 0.216362 0.317141
v -0.263825 0.388610 0.160879
v -0.363861 0.300995 0.220229
v -0.255448 0.241559 0.345382
v -0.269139 0.413807 0.189119
v -0.369175 0.326192 0.248470
v -0.258240 0.422285 -0.185544
v -0.354543 0.337573 -0.254505
v -0.235266 0.257256 -0.348371
vt 0.605580 0.674043
vt 0.194109 0.791847
vt 0.146669 0.773274
vt 0.463216 0.483002
vt 0.261189 0.093451
vt 0.356248 0.039451
vt 0.633587 0.671687
vt 0.725284 0.793997
vt 0.983299 0.135241
vt 0.630116 0.606414
vt 0.875375 0.124013
vt 0.758497 0.000818
vt 0.857791 0.403548
vt 0.522994 0.805634
vt 0.459662 0.801447
vt 0.749520 0.444296
vt 0.640540 0.515918
vt 0.017767 0.791611
vt 0.956926 0.628443
vt 0.007859 0.528316
vt 0.089101 0.547553
vt 0.481862 0.168413
vt 0.745490 0.971299
vt 0.971169 0.681210
vt 0.250974 0.455996
vt 0.264521 0.689427
vt 0.207213 0.560334
vt 0.231099 0.623196
vt 0.751918 0.696954
vt 0.443530 0.611888
vt 0.033766 0.159142
vt 0.434417 0.540982
vt 0.321112 0.803580
vt 0.277531 0.803019
vt 0.527410 0.270310
vt 0.566806 0.336692
vt 0.355909 0.604223
vt 0.269199 0.975728
vt 0.360142 0.666031
vt 0.337152 0.628307
vt 0.354231 0.358276
vt 0.254833 0.358334
vt 0.180685 0.530201
vt 0.137109 0.658550
vt 0.481897 0.348411
vt 0.189617 0.631114
vt 0.981050 0.279696
vt 0.641774 0.804494
vt 0.598190 0.804702
vt 0.938453 0.344382
vt 0.816620 0.384809
vt 0.747992 0.338315
vt 0.872806 0.324215
vt 0.295400 0.621973
vt 0.154817 0.354150
vt 0.304626 0.684881
vt 0.320056 0.652080
vt 0.643312 0.399110
vt 0.396298 0.805121
vt 0.626913 0.319127
vt 0.632808 0.118994
vt 0.531472 0.125892
vt 0.522959 0.468076
vt 0.534496 0.532215
vt 0.537259 0.596242
vt 0.530693 0.656959
vt 0.166663 0.035528
vt 0.764399 0.641780
vt 0.130624 0.146831
vt 0.945824 0.560366
vt 0.907438 0.896650
vt 0.836184 0.414380
vt 0.815917 0.639644
vt 0.812646 0.568868
vt 0.820012 0.523312
vt 0.180110 0.903794
vt 0.267535 0.908639
vt 0.306339 0.911027
vt 0.395398 0.919559
vt 0.522966 0.920076
vt 0.459176 0.921436
vt 0.650914 0.910192
vt 0.612092 0.912265
vt 0.738376 0.906055
vt 0.965737 0.512433
vt 0.772979 0.570905
vt 0.076319 0.842354
vt 0.132753 0.841788
vt 0.842660 0.845457
vt 0.013872 0.842221
vt 0.786232 0.844434
vt 0.730008 0.850451
vt 0.608026 0.858758
vt 0.647681 0.857130
vt 0.459418 0.861594
vt 0.522881 0.863000
vt 0.310838 0.857555
vt 0.395946 0.862486
vt 0.271198 0.855605
vt 0.122652 0.901323
vt 0.605705 0.609351
vt 0.590821 0.520431
vt 0.681404 0.382011
vt 0.898527 0.516293
vt 0.907450 0.559978
vt 0.907107 0.628431
vt 0.896169 0.456903
vt 0.681345 0.454822
vt 0.698506 0.589649
vt 0.697985 0.524897
vt 0.706311 0.459580
vt 0.212731 0.532900
vt 0.385128 0.152385
vt 0.772872 0.775809
vt 0.248303 0.737821
vt 0.240130 0.800481
vt 0.188927 0.848260
vt 0.234590 0.853423
vt 0.229925 0.905464
vt 0.418203 0.641240
vt 0.013813 0.258040
vt 0.127420 0.201517
vt 0.263558 0.108082
vt 0.200186 0.124698
vt 0.262251 0.187879
vt 0.326084 0.127303
vt 0.496870 0.268036
vt 0.390377 0.206958
vt 0.367142 0.248699
vt 0.109117 0.647121
vt 0.688548 0.907321
vt 0.684305 0.855244
vt 0.679194 0.802259
vt 0.991091 0.214336
vt 0.901695 0.218408
vt 0.752858 0.109585
vt 0.749620 0.216656
vt 0.601380 0.212194
vt 0.257883 0.290243
vt 0.329760 0.275949
vt 0.186063 0.272976
vt 0.149325 0.244192
vt 0.188657 0.111957
vt 0.149204 0.193817
vt 0.151981 0.155423
vt 0.197129 0.263017
vt 0.159732 0.231148
vt 0.333150 0.114946
vt 0.370559 0.161283
vt 0.323870 0.265639
vt 0.260469 0.276756
vt 0.373855 0.198465
vt 0.362223 0.235338
vt 0.147524 0.192921
vt 0.153604 0.156794
vt 0.375058 0.197629
vt 0.371719 0.159970
vt 0.196064 0.263009
vt 0.260217 0.276925
vt 0.324431 0.265665
vt 0.363277 0.234975
vt 0.199160 0.122915
vt 0.263768 0.110053
vt 0.326674 0.125554
vt 0.158187 0.230732
vt 0.123253 0.202703
vt 0.134585 0.147201
vt 0.393742 0.208300
vt 0.388343 0.152164
vt 0.183577 0.276208
vt 0.257454 0.293970
vt 0.331389 0.279267
vt 0.369842 0.251236
vt 0.186245 0.110577
vt 0.261514 0.095308
vt 0.334876 0.113652
vt 0.145786 0.246600
vt 0.024142 0.338939
vt 0.033312 0.420272
vt 0.169958 0.607762
vt 0.466821 0.429242
vt 0.119964 0.567705
vt 0.147275 0.590013
vt 0.404343 0.562294
vt 0.377900 0.585625
vt 0.350349 0.453554
vt 0.078134 0.515451
vt 0.449317 0.068831
vt 0.151105 0.449431
vt 0.263205 0.620286
vt 0.444155 0.508487
vt 0.262095 0.010836
vt 0.070146 0.060986
vt 0.390666 0.653726
vt 0.316449 0.982888
vt 0.648707 0.977265
vt 0.691518 0.970107
vt 0.082692 0.618754
vt 0.047867 0.595610
vt 0.172468 0.968979
vt 0.226447 0.968224
vt 0.517715 0.990399
vt 0.601400 0.984042
vt 0.032253 0.558387
vt 0.007533 0.959990
vt 0.400080 0.989922
vt 0.458897 0.990178
vt 0.491636 0.549646
vt 0.477450 0.587436
vt 0.631480 0.743067
vt 0.584923 0.744750
vt 0.288322 0.741677
vt 0.334863 0.743737
vt 0.717457 0.728567
vt 0.671529 0.739534
vt 0.202465 0.726482
vt 0.520569 0.204601
vt 0.836824 0.785036
vt 0.827419 0.697159
vt 0.858559 0.967487
vt 0.847494 0.899968
vt 0.526249 0.736849
vt 0.459916 0.738542
vt 0.886925 0.680994
vt 0.628962 0.451588
vt 0.795851 0.904049
vt 0.082645 0.781983
vt 0.092761 0.694184
vt 0.059432 0.964252
vt 0.071045 0.896824
vt 0.393600 0.736311
vt 0.585453 0.728726
vt 0.762453 0.718399
vt 0.801318 0.957527
vt 0.750344 0.522184
vt 0.116753 0.954755
vt 0.157552 0.715950
vt 0.645967 0.024063
vt 0.533861 0.047007
vt 0.984020 0.056321
vt 0.871046 0.028720
vt 0.973022 0.398653
vt 0.960125 0.441120
vt 0.940718 0.379035
vt 0.929183 0.428831
vt 0.819700 0.456505
vt 0.819429 0.691914
vt 0.852218 0.466202
vt 0.874419 0.419071
vt 0.905106 0.845830
vt 0.011129 0.893021
vt 0.901621 0.795190
vt 0.910492 0.963646
vt 0.033388 0.677538
vt 0.961511 0.459861
vt 0.905796 0.679030
vt 0.752474 0.467638
vt 0.819920 0.461794
vt 0.514868 0.518669
vt 0.058117 0.490710
vt 0.656723 0.725826
vt 0.599008 0.456261
vt 0.690924 0.430878
vt 0.727083 0.692716
vt 0.708271 0.650577
vt 0.656942 0.416763
vt 0.647016 0.451562
vt 0.512360 0.439919
vt 0.514232 0.699562
vt 0.515245 0.413342
vt 0.545366 0.453643
vt 0.553217 0.416962
vt 0.337152 0.628307
vt 0.320056 0.652080
vt 0.295400 0.621973
vt 0.231099 0.623196
vt 0.207606 0.654220
vt 0.189617 0.631114
vt 0.337152 0.628307
vt 0.320056 0.652080
vt 0.295400 0.621973
vt 0.349683 0.533673
vt 0.315302 0.555311
vt 0.319052 0.527282
vt 0.345530 0.529660
vt 0.321068 0.554978
vt 0.319797 0.533009
vt 0.207025 0.533793
vt 0.210425 0.555534
vt 0.181166 0.535956
vt 0.320056 0.652080
vt 0.360142 0.666031
vt 0.304626 0.684881
vt 0.224272 0.686410
vt 0.207606 0.654220
vt 0.168080 0.669686
vt 0.206544 0.528037
vt 0.314032 0.533343
vt 0.177955 0.540756
vt 0.216131 0.554641
vt 0.325221 0.558991
vt 0.344784 0.523933
vn 0.566727 -0.162948 0.807631
vn 0.109794 -0.261228 0.959013
vn -0.308351 -0.414286 0.856322
vn -0.381408 -0.923853 -0.031998
vn -0.927490 -0.372168 -0.035402
vn -0.420866 -0.826253 -0.374403
vn 0.612909 -0.127028 -0.779876
vn 0.165672 -0.217766 -0.961837
vn 0.488678 -0.000378 -0.872464
vn 0.707205 -0.700600 -0.094978
vn 0.804247 -0.339100 -0.488055
vn 0.462958 -0.886356 -0.006586
vn 0.397119 0.771609 -0.496907
vn 0.195068 0.840212 -0.505957
vn 0.399098 0.916338 0.032343
vn 0.185279 0.982298 0.027615
vn -0.220568 -0.962293 -0.159191
vn 0.129616 -0.991389 -0.018660
vn -0.276979 -0.944895 -0.174516
vn -0.084952 -0.996071 -0.025007
vn -0.506337 -0.218881 -0.834095
vn -0.210979 -0.349496 -0.912875
vn -0.364453 -0.653350 -0.663557
vn -0.261587 -0.434231 -0.861984
vn -0.716422 0.697649 -0.005056
vn -0.417911 0.908449 0.008397
vn -0.721302 0.655605 -0.223393
vn -0.336798 0.860365 -0.382542
vn -0.310659 -0.472396 0.824823
vn -0.263204 -0.390114 0.882346
vn -0.401533 -0.682189 0.611055
vn -0.553657 -0.255685 0.792521
vn 0.178757 0.274162 0.944924
vn 0.407139 0.281064 0.869046
vn 0.162516 0.605132 0.779361
vn 0.340037 0.563376 0.752982
vn -0.660088 0.238370 0.712365
vn -0.315546 0.314135 0.895405
vn -0.536208 0.402991 0.741673
vn -0.245100 0.566590 0.786703
vn -0.871981 0.342469 -0.349806
vn -0.901233 0.433024 -0.016420
vn -0.199720 0.601885 -0.773205
vn -0.263400 0.354693 -0.897114
vn -0.492738 0.436801 -0.752605
vn -0.617896 0.271186 -0.738013
vn 0.232997 0.316346 -0.919585
vn 0.206729 0.639519 -0.740458
vn 0.456576 0.319514 -0.830331
vn 0.382473 0.596381 -0.705723
vn 0.619816 0.730641 -0.286342
vn 0.878183 0.476943 0.036338
vn 0.720888 0.436195 -0.538566
vn -0.733925 0.645788 0.210505
vn -0.891282 0.327457 0.313669
vn -0.139039 0.659292 0.738920
vn -0.139039 0.659292 0.738920
vn -0.139039 0.659292 0.738920
vn 0.366563 0.747842 0.553501
vn 0.164236 0.816232 0.553888
vn 0.687805 0.410464 0.598702
vn 0.774976 -0.361866 0.518136
vn 0.437160 -0.040447 0.898474
vn -0.549758 -0.507971 0.663122
vn -0.581929 -0.590300 -0.559379
vn 0.617598 -0.552594 0.559653
vn 0.579486 -0.529775 -0.619302
vn -0.440822 -0.841774 0.311596
vn -0.285409 -0.951451 0.115249
vn -0.872762 -0.289873 0.392760
vn 0.339366 -0.940400 -0.021877
vn -0.080229 -0.996466 -0.024880
vn -0.520354 -0.603681 -0.603987
vn 0.531927 -0.661261 -0.528949
vn -0.582403 -0.529589 0.616719
vn 0.405853 -0.511437 0.757440
vn -0.131509 -0.448397 0.884107
vn -0.137755 0.578250 0.804146
vn -0.127031 0.265448 0.955720
vn -0.107195 0.819234 0.563351
vn -0.359587 0.842641 0.400816
vn -0.075358 0.843996 -0.531029
vn -0.102158 0.994577 0.019531
vn -0.071635 0.308533 -0.948513
vn -0.091560 0.614180 -0.783837
vn -0.079327 -0.407813 -0.909613
vn 0.154099 -0.485913 -0.860315
vn 0.338758 -0.940873 -0.000963
vn 0.062267 -0.929909 0.362479
vn -0.009414 -0.772725 0.634671
vn 0.084444 -0.912660 -0.399901
vn 0.017783 -0.999598 -0.022099
vn 0.028494 -0.743241 -0.668417
vn 0.069074 -0.369661 -0.926596
vn 0.085324 0.642510 -0.761512
vn 0.070686 0.290684 -0.954205
vn 0.049913 0.998464 0.024043
vn 0.071462 0.850623 -0.520898
vn 0.040090 0.607327 0.793440
vn 0.039957 0.826119 0.562077
vn 0.014741 0.247173 0.968859
vn 0.104490 -0.524496 0.844977
vn 0.701411 -0.705107 0.104150
vn -0.228180 -0.968213 0.102460
vn 0.601170 0.716139 0.354596
vn 0.449848 -0.477218 -0.754917
vn 0.501164 -0.685187 0.528539
vn -0.544890 -0.500412 -0.672817
vn -0.553774 -0.629675 0.544834
vn 0.543217 -0.557983 0.627351
vn -0.612671 -0.614210 0.497373
vn 0.649799 -0.527549 -0.547223
vn -0.509632 -0.476763 -0.716221
vn -0.627821 0.659242 -0.413813
vn -0.627821 0.659242 -0.413813
vn -0.627821 0.659242 -0.413813
vn -0.848084 -0.270681 -0.455505
vn -0.257531 -0.374759 -0.890637
vn 0.380127 -0.000568 0.924934
vn 0.182660 -0.046543 0.982074
vn 0.015604 -0.411247 0.911390
vn -0.109144 -0.070572 0.991518
vn 0.056167 -0.007195 0.998396
vn -0.320546 -0.065039 0.944997
vn -0.605770 -0.008070 0.795599
vn -0.878609 -0.101614 0.466605
vn -0.986230 -0.162181 -0.032362
vn -0.975162 -0.122121 0.184784
vn -0.984808 -0.170575 -0.032508
vn -0.962617 -0.112366 -0.246462
vn -0.558509 0.028688 -0.829003
vn -0.849880 -0.079268 -0.520981
vn -0.858773 0.162914 -0.485765
vn -0.265012 -0.021847 -0.963998
vn -0.051257 -0.025550 -0.998359
vn 0.114092 0.037856 -0.992749
vn 0.433226 0.040731 -0.900364
vn 0.239473 -0.002356 -0.970900
vn 0.798016 0.097516 -0.594694
vn 0.895008 -0.445764 0.015950
vn 0.993901 0.105737 0.031305
vn 0.761985 0.069493 0.643855
vn -0.921291 0.388457 -0.018012
vn -0.893898 0.276264 -0.353021
vn -0.913262 0.261204 0.312608
vn -0.885760 0.141924 0.441913
vn -0.201296 -0.884551 0.420772
vn -0.188426 -0.895308 0.403632
vn -0.174202 -0.984330 -0.027339
vn -0.168975 -0.985245 -0.027208
vn -0.242608 -0.170519 0.955021
vn -0.270302 0.058676 0.960986
vn -0.239426 -0.174434 0.955117
vn -0.227016 0.077925 0.970769
vn -0.220505 0.704956 0.674102
vn -0.203455 0.849654 0.486512
vn -0.209173 0.696840 0.686047
vn -0.203272 0.876496 0.436389
vn -0.193339 -0.758629 -0.622175
vn -0.175345 -0.864368 -0.471299
vn -0.176769 -0.748591 -0.639034
vn -0.163479 -0.875905 -0.453943
vn -0.175961 0.871038 -0.458618
vn -0.178726 0.895588 -0.407407
vn -0.192716 0.981114 0.016592
vn -0.207339 0.978137 0.016099
vn -0.214087 0.102399 -0.971433
vn -0.170331 0.122013 -0.977804
vn -0.195567 0.345316 -0.917884
vn -0.099595 0.246258 -0.964074
vn -0.961129 -0.214851 0.173407
vn -0.949385 -0.282166 0.138024
vn -0.949146 -0.205536 -0.238488
vn -0.939390 -0.274393 -0.205560
vn -0.972051 -0.204343 0.115591
vn -0.984739 -0.149867 0.088484
vn -0.963423 -0.197633 -0.180991
vn -0.977736 -0.144423 -0.152233
vn -0.927688 -0.315372 0.199840
vn -0.914093 -0.304800 -0.267452
vn -0.212615 -0.776471 0.593202
vn -0.228166 -0.785714 0.574973
vn -0.169875 0.727405 -0.664850
vn -0.181893 0.734987 -0.653229
vn -0.988882 -0.145209 -0.032051
vn -0.183297 -0.130779 -0.974320
vn -0.186485 -0.126868 -0.974232
vn -0.249021 0.303739 0.919636
vn -0.155764 0.202569 0.966801
vn -0.225223 0.587432 0.777302
vn -0.547647 0.805853 -0.225131
vn -0.560861 0.795575 0.229119
vn -0.651670 0.640693 0.406003
vn -0.651670 0.640693 0.406003
vn -0.651670 0.640693 0.406003
vn -0.096737 0.692192 -0.715201
vn -0.096737 0.692192 -0.715201
vn -0.096737 0.692192 -0.715201
vn -0.180450 0.622254 -0.761734
vn -0.000000 0.000000 0.000000
vn -0.000000 0.000000 0.000000
vn -0.000000 0.000000 0.000000
vn -0.000000 0.000000 0.000000
vn -0.000000 0.000000 0.000000
vn -0.000000 0.000000 0.000000
vn -0.000000 0.000000 0.000000
vn -0.000000 0.000000 0.000000
vn -0.000000 0.000000 0.000000
vn -0.000000 0.000000 0.000000
vn -0.000000 0.000000 0.000000
vn -0.000000 0.000000 0.000000
vn -0.000000 0.000000 0.000000
vn -0.000000 0.000000 0.000000
vn -0.000000 0.000000 0.000000
vn -0.000000 0.000000 0.000000
vn -0.000000 0.000000 0.000000
vn -0.000000 0.000000 0.000000
vn -0.000000 0.000000 0.000000
vn -0.000000 0.000000 0.000000
vn -0.000000 0.000000 0.000000
vn -0.000000 0.000000 0.000000
vn -0.000000 0.000000 0.000000
vn -0.000000 0.000000 0.000000
vn -0.000000 0.000000 0.000000
vn -0.000000 0.000000 0.000000
vn -0.000000 0.000000 0.000000
vn -0.000000 0.000000 0.000000
vn -0.000000 0.000000 0.000000
vn -0.000000 0.000000 0.000000
vn -0.000000 0.000000 0.000000
vn -0.000000 0.000000 0.000000
vn -0.000000 0.000000 0.000000
vn -0.000000 0.000000 0.000000
vn -0.000000 0.000000 0.000000
vn -0.000000 0.000000 0.000000
vn -0.000000 0.000000 0.000000
vn -0.000000 0.000000 0.000000
vn -0.000000 0.000000 0.000000
vn -0.000000 0.000000 0.000000
vn -0.000000 0.000000 0.000000
vn -0.000000 0.000000 0.000000
vn -0.000000 0.000000 0.000000
vn -0.000000 0.000000 0.000000
vn -0.000000 0.000000 0.000000
vn -0.000000 0.000000 0.000000
vn -0.000000 0.000000 0.000000
vn -0.000000 0.000000 0.000000
vn 0.988542 0.136682 0.064055
vn 0.988542 0.136682 0.064055
vn 0.988542 0.136682 0.064055
vn 0.988542 0.136682 0.064055
vn -0.713279 0.450935 -0.536554
vn -0.713279 0.450935 -0.536555
vn -0.713279 0.450935 -0.536554
vn -0.713279 0.450935 -0.536555
vn -0.736250 -0.567832 0.368106
vn -0.736250 -0.567833 0.368106
vn -0.736250 -0.567832 0.368106
vn -0.736250 -0.567833 0.368106
vn -0.743841 0.427165 0.514033
vn -0.743841 0.427165 0.514034
vn -0.743841 0.427165 0.514033
vn -0.743841 0.427164 0.514034
vn 0.990413 0.138139 -0.000268
vn 0.990413 0.138138 -0.000268
vn 0.990413 0.138139 -0.000268
vn 0.990413 0.138138 -0.000268
vn -0.712871 -0.549650 -0.435546
vn -0.712871 -0.549651 -0.435545
vn -0.712871 -0.549650 -0.435546
vn -0.712871 -0.549651 -0.435545
usemtl aiStandardSurface5SG
f 1/237/1 84/2/2 35/3/3
f 19/192/4 89/5/5 55/6/6
f 7/233/7 94/8/8 95/214/9
f 59/241/10 96/11/11 21/12/12
f 61/222/13 62/14/14 23/223/15
f 23/223/15 62/14/14 40/15/16
f 59/219/10 21/224/12 58/218/17
f 58/218/17 21/224/12 36/252/18
f 56/204/19 28/20/20 55/187/6
f 55/187/6 28/20/20 19/260/4
f 91/182/21 92/198/22 5/21/23
f 5/21/23 92/198/22 27/199/24
f 25/190/25 32/26/26 65/28/27
f 65/28/27 32/26/26 64/294/28
f 29/209/29 86/30/30 3/32/31
f 3/32/31 86/30/30 87/184/32
f 100/34/33 101/212/34 41/33/35
f 41/33/35 101/212/34 2/213/36
f 113/37/37 114/194/38 4/40/39
f 4/40/39 114/194/38 31/39/40
f 65/186/27 110/41/41 25/25/25
f 25/25/25 110/41/41 111/42/42
f 33/296/43 108/44/44 6/46/45
f 6/46/45 108/44/44 109/180/46
f 106/48/47 39/49/48 105/210/49
f 105/210/49 39/49/48 8/211/50
f 152/51/51 103/52/52 104/53/53
f 53/189/54 112/55/55 4/179/39
f 4/179/39 112/55/55 113/178/37
f 166/285/56 167/286/57 168/287/58
f 49/231/59 50/59/60 2/213/36
f 2/213/36 50/59/60 41/33/35
f 2/36/36 102/60/61 49/58/59
f 1/239/1 98/61/62 83/62/63
f 75/270/64 76/272/65 78/268/66
f 78/268/66 76/272/65 77/271/67
f 43/191/68 44/208/69 3/32/31
f 3/32/31 44/208/69 29/209/29
f 87/31/32 88/69/70 3/193/31
f 3/193/31 88/69/70 43/67/68
f 57/221/71 20/71/72 56/220/19
f 56/220/19 20/71/72 28/253/20
f 67/249/73 69/248/74 68/72/75
f 68/72/75 69/248/74 70/246/76
f 29/236/29 85/76/77 86/200/30
f 31/195/40 114/38/38 12/78/78
f 12/78/78 114/38/38 99/77/79
f 12/78/78 51/79/80 31/195/40
f 31/195/40 51/79/80 52/206/81
f 63/80/82 64/202/28 24/81/83
f 24/81/83 64/202/28 32/207/26
f 107/82/84 108/196/44 11/83/85
f 11/83/85 108/196/44 33/203/43
f 27/234/24 93/84/86 10/226/87
f 45/230/88 118/87/89 119/88/90
f 116/89/91 117/250/92 57/221/71
f 57/221/71 117/250/92 20/71/72
f 115/91/93 93/84/86 130/92/94
f 127/93/95 128/94/96 11/83/85
f 11/83/85 128/94/96 107/82/84
f 125/95/97 126/96/98 24/81/83
f 24/81/83 126/96/98 63/80/82
f 123/97/99 124/98/100 12/78/78
f 12/78/78 124/98/100 51/79/80
f 99/77/79 122/99/101 12/78/78
f 12/78/78 122/99/101 123/97/99
f 119/88/90 85/76/77 9/100/102
f 19/4/4 28/259/20 43/191/68
f 43/191/68 28/259/20 44/208/69
f 45/230/88 44/229/69 20/251/72
f 20/251/72 44/229/69 28/205/20
f 20/251/72 117/90/92 45/230/88
f 45/230/88 117/90/92 118/87/89
f 47/228/103 46/227/104 21/254/12
f 21/254/12 46/227/104 36/18/18
f 21/12/12 98/61/62 47/238/103
f 103/52/52 153/103/105 102/60/61
f 49/231/59 23/223/15 50/59/60
f 50/59/60 23/223/15 40/15/16
f 51/79/80 124/98/100 24/81/83
f 24/81/83 124/98/100 125/95/97
f 51/79/80 24/81/83 52/206/81
f 52/206/81 24/81/83 32/207/26
f 52/56/81 32/26/26 53/54/54
f 53/54/54 32/26/26 25/190/25
f 111/42/42 112/55/55 25/25/25
f 25/25/25 112/55/55 53/189/54
f 43/67/68 89/5/5 19/192/4
f 27/199/24 56/204/19 5/21/23
f 5/21/23 56/204/19 55/187/6
f 72/243/106 71/245/107 74/242/108
f 74/242/108 71/245/107 73/244/109
f 115/91/93 57/221/71 10/226/87
f 80/267/110 81/266/111 79/108/112
f 79/108/112 81/266/111 82/263/113
f 7/240/7 96/11/11 59/241/10
f 8/50/50 104/53/53 105/47/49
f 39/49/48 62/14/14 8/211/50
f 8/211/50 62/14/14 61/222/13
f 63/80/82 126/96/98 11/83/85
f 11/83/85 126/96/98 127/93/95
f 64/202/28 63/80/82 33/203/43
f 33/203/43 63/80/82 11/83/85
f 157/276/114 158/277/115 159/278/116
f 109/45/46 110/41/41 6/181/45
f 6/181/45 110/41/41 65/186/27
f 55/6/6 90/169/117 5/188/23
f 5/188/23 90/169/117 91/22/21
f 29/29/29 67/73/73 68/247/75
f 44/68/69 45/86/88 67/73/73
f 45/86/88 9/235/102 70/75/76
f 9/235/102 29/257/29 70/75/76
f 72/104/106 57/70/71 71/105/107
f 57/70/71 73/106/109 71/105/107
f 56/19/19 27/24/24 73/106/109
f 27/255/24 72/104/106 74/107/108
f 35/262/3 46/102/104 75/63/64
f 46/102/104 77/65/67 76/64/65
f 47/101/103 1/1/1 77/65/67
f 1/1/1 75/269/64 78/66/66
f 7/7/7 80/109/110 79/265/112
f 59/10/10 58/17/17 80/109/110
f 58/17/17 82/111/113 81/110/111
f 37/261/118 7/7/7 82/264/113
f 83/216/63 13/115/119 84/2/2
f 84/2/2 13/115/119 42/116/120
f 85/76/77 120/117/121 14/119/122
f 14/119/122 120/117/121 121/118/123
f 86/200/30 85/76/77 30/201/124
f 30/201/124 85/76/77 14/119/122
f 87/184/32 86/30/30 15/185/125
f 15/185/125 86/30/30 30/120/124
f 88/69/70 87/31/32 147/166/126
f 132/163/127 141/124/128 137/125/129
f 137/125/129 139/126/130 132/163/127
f 16/127/131 146/168/132 66/173/133
f 91/182/21 16/183/131 92/198/22
f 92/198/22 16/183/131 34/130/134
f 92/23/22 34/197/134 93/84/86
f 93/84/86 34/197/134 17/131/135
f 129/132/136 130/92/94 17/131/135
f 17/131/135 130/92/94 93/84/86
f 95/214/9 94/8/8 18/215/137
f 18/215/137 94/8/8 38/133/138
f 96/11/11 95/9/9 60/135/139
f 97/136/140 96/11/11 22/137/141
f 98/61/62 97/136/140 22/137/141
f 83/62/63 48/138/142 13/217/119
f 14/119/122 121/118/123 99/77/79
f 99/77/79 121/118/123 122/99/101
f 101/212/34 100/34/33 13/115/119
f 13/115/119 100/34/33 42/116/120
f 101/35/34 48/138/142 102/60/61
f 22/137/141 102/60/61 48/138/142
f 104/53/53 22/137/141 60/135/139
f 105/47/49 60/135/139 18/134/137
f 38/133/138 106/48/47 18/215/137
f 18/215/137 106/48/47 105/210/49
f 128/94/96 129/132/136 107/82/84
f 107/82/84 129/132/136 17/131/135
f 17/131/135 34/197/134 107/82/84
f 107/82/84 34/197/134 108/196/44
f 109/180/46 108/44/44 16/183/131
f 16/183/131 108/44/44 34/130/134
f 16/127/131 66/173/133 109/45/46
f 109/45/46 66/173/133 110/41/41
f 26/171/143 110/41/41 142/172/144
f 112/55/55 143/170/145 54/177/146
f 112/55/55 54/177/146 113/178/37
f 113/178/37 54/177/146 15/121/125
f 30/120/124 114/194/38 15/185/125
f 15/185/125 114/194/38 113/37/37
f 114/38/38 30/201/124 99/77/79
f 99/77/79 30/201/124 14/119/122
f 115/91/93 58/218/17 116/89/91
f 117/250/92 116/89/91 36/252/18
f 36/252/18 116/89/91 58/218/17
f 117/90/92 36/18/18 118/87/89
f 118/87/89 36/18/18 46/227/104
f 119/88/90 46/227/104 35/3/3
f 35/3/3 84/2/2 119/88/90
f 121/118/123 120/117/121 42/116/120
f 42/116/120 120/117/121 84/2/2
f 121/118/123 42/116/120 122/99/101
f 122/99/101 42/116/120 100/34/33
f 122/99/101 100/34/33 123/97/99
f 123/97/99 100/34/33 41/33/35
f 50/59/60 124/98/100 41/33/35
f 41/33/35 124/98/100 123/97/99
f 124/98/100 50/59/60 125/95/97
f 125/95/97 50/59/60 40/15/16
f 126/96/98 125/95/97 62/14/14
f 62/14/14 125/95/97 40/15/16
f 127/93/95 126/96/98 39/49/48
f 39/49/48 126/96/98 62/14/14
f 39/49/48 106/48/47 127/93/95
f 127/93/95 106/48/47 128/94/96
f 129/132/136 128/94/96 38/133/138
f 38/133/138 128/94/96 106/48/47
f 94/8/8 130/92/94 38/133/138
f 38/133/138 130/92/94 129/132/136
f 115/91/93 130/92/94 94/8/8
f 47/238/103 98/61/62 1/239/1
f 7/240/7 95/9/9 96/11/11
f 21/12/12 96/11/11 97/136/140
f 21/12/12 97/136/140 98/61/62
f 101/35/34 102/60/61 2/36/36
f 61/13/13 104/53/53 8/50/50
f 61/13/13 152/51/51 104/53/53
f 49/58/59 102/60/61 153/103/105
f 140/143/147 141/162/148 89/175/149
f 89/175/149 141/162/148 132/123/150
f 88/167/151 147/122/152 131/145/153
f 131/145/153 147/122/152 149/154/154
f 54/142/155 143/141/156 133/165/157
f 133/165/157 143/141/156 145/158/158
f 90/113/159 138/148/160 135/157/161
f 135/157/161 138/148/160 139/164/162
f 142/140/163 144/160/164 26/139/165
f 26/139/165 144/160/164 134/159/166
f 146/128/167 148/156/168 66/129/169
f 66/129/169 148/156/168 136/161/170
f 137/125/129 131/155/171 149/144/172
f 135/149/173 137/125/129 148/152/174
f 137/125/129 133/147/175 145/146/176
f 136/153/177 137/125/129 144/150/178
f 43/67/68 140/174/179 89/5/5
f 55/6/6 138/176/180 90/169/117
f 55/6/6 89/5/5 138/176/180
f 138/148/160 89/175/149 139/164/162
f 139/164/162 89/175/149 132/123/150
f 43/67/68 88/69/70 140/174/179
f 141/162/148 140/143/147 131/145/181
f 131/145/181 140/143/147 88/167/182
f 137/125/129 141/124/128 131/155/171
f 137/125/129 135/149/173 139/126/130
f 112/55/55 111/42/42 26/171/143
f 111/42/42 110/41/41 26/171/143
f 142/172/144 110/41/41 66/173/133
f 112/55/55 26/171/143 143/170/145
f 144/160/164 142/140/163 136/161/183
f 136/161/183 142/140/163 66/129/184
f 143/141/156 26/139/165 145/158/158
f 145/158/158 26/139/165 134/159/166
f 137/125/129 145/146/176 134/151/185
f 144/150/178 137/125/129 134/151/185
f 91/22/21 146/168/132 16/127/131
f 147/166/126 15/121/125 54/177/146
f 91/22/21 90/169/117 146/168/132
f 147/166/126 87/31/32 15/121/125
f 148/156/168 146/128/167 135/157/186
f 135/157/186 146/128/167 90/113/187
f 147/122/152 54/142/188 149/154/154
f 149/154/154 54/142/188 133/165/189
f 137/125/129 149/144/172 133/147/175
f 148/152/174 137/125/129 136/153/177
f 37/114/118 94/8/8 7/233/7
f 1/237/1 83/216/63 84/2/2
f 27/234/24 92/23/22 93/84/86
f 9/100/102 85/76/77 29/236/29
f 10/226/87 93/84/86 115/91/93
f 119/88/90 120/117/121 85/76/77
f 115/91/93 94/8/8 37/114/118
f 119/88/90 84/2/2 120/117/121
f 115/91/93 116/89/91 57/221/71
f 45/230/88 119/88/90 9/100/102
f 37/114/118 58/218/17 115/91/93
f 119/88/90 118/87/89 46/227/104
f 31/39/40 150/57/190 4/40/39
f 65/28/27 64/294/28 151/295/191
f 150/57/192 52/56/81 53/54/54
f 161/279/193 160/280/194 162/281/195
f 170/288/196 169/289/197 171/290/198
f 6/46/45 151/295/199 33/296/43
f 23/16/15 152/51/51 61/13/13
f 23/16/15 103/52/52 152/51/51
f 23/16/15 153/103/105 103/52/52
f 49/58/59 153/103/105 23/16/15
f 104/53/53 103/52/52 22/137/141
f 103/52/52 102/60/61 22/137/141
f 22/137/141 96/11/11 60/135/139
f 98/61/62 22/137/141 48/138/142
f 13/217/119 48/138/142 101/35/34
f 105/47/49 104/53/53 60/135/139
f 83/62/63 98/61/62 48/138/142
f 60/135/139 95/9/9 18/134/137
f 77/65/67 1/1/1 78/66/66
f 7/7/7 59/10/10 80/109/110
f 1/1/1 35/232/3 75/269/64
f 82/264/113 7/7/7 79/265/112
f 75/63/64 46/102/104 76/64/65
f 58/17/17 37/225/118 82/111/113
f 46/102/104 47/101/103 77/65/67
f 80/109/110 58/17/17 81/110/111
f 70/75/76 29/257/29 68/258/75
f 27/255/24 10/85/87 72/104/106
f 45/86/88 70/75/76 69/74/74
f 10/85/87 57/70/71 72/104/106
f 29/29/29 44/68/69 67/73/73
f 73/106/109 27/24/24 74/256/108
f 67/73/73 45/86/88 69/74/74
f 57/70/71 56/19/19 73/106/109
f 155/273/200 4/40/201 154/274/202
f 4/40/201 150/57/203 154/274/202
f 154/274/204 150/57/205 156/275/206
f 150/57/205 53/54/207 156/275/206
f 156/275/208 53/54/209 155/273/210
f 53/54/209 4/40/211 155/273/210
f 157/276/212 65/28/213 158/277/214
f 65/28/213 151/295/215 158/277/214
f 158/277/216 151/295/217 159/278/218
f 151/295/217 6/46/219 159/278/218
f 159/278/220 6/46/221 157/276/222
f 6/46/221 65/28/223 157/276/222
f 161/279/224 155/273/225 160/280/226
f 155/273/225 154/274/227 160/280/226
f 160/280/228 154/274/229 162/281/230
f 154/274/229 156/275/231 162/281/230
f 162/281/232 156/275/233 161/279/234
f 156/275/233 155/273/235 161/279/234
f 163/292/236 31/39/237 164/293/238
f 31/39/237 52/56/239 164/293/238
f 164/293/240 52/56/241 165/291/242
f 52/56/241 150/57/243 165/291/242
f 165/291/244 150/57/245 163/292/246
f 150/57/245 31/39/247 163/292/246
f 163/282/248 164/301/249 166/285/250
f 166/285/250 164/301/249 167/286/251
f 164/283/252 165/298/253 167/286/254
f 167/286/254 165/298/253 168/287/255
f 165/284/256 163/302/257 168/287/258
f 168/287/258 163/302/257 166/285/259
f 151/112/260 64/300/261 170/288/262
f 170/288/262 64/300/261 169/289/263
f 64/27/264 33/299/265 169/289/266
f 169/289/266 33/299/265 171/290/267
f 33/43/268 151/297/269 171/290/270
f 171/290/270 151/297/269 170/288/271
