# This file uses centimeters as units for non-parametric coordinates.

mtllib piggyS.mtl
v 0.495903 -0.271230 0.359690
v 0.452864 0.222640 0.308324
v -0.453031 -0.295281 0.224653
v -0.420294 0.210728 0.272095
v -0.438824 -0.284232 -0.263710
v -0.404051 0.223362 -0.286255
v 0.516320 -0.255350 -0.342158
v 0.469720 0.235750 -0.271114
v -0.050508 -0.295687 0.300746
v -0.032559 -0.281727 -0.316227
v -0.023542 0.232321 -0.377503
v -0.045742 0.215055 0.385609
v 0.452907 -0.002556 0.380414
v -0.044940 -0.010890 0.448145
v -0.477635 -0.017755 0.297209
v -0.459536 -0.003678 -0.324957
v -0.018811 0.009432 -0.450033
v 0.474247 0.014042 -0.353182
v -0.491313 -0.365910 -0.022572
v -0.041164 -0.406073 -0.010385
v 0.597292 -0.349975 0.009457
v 0.786896 0.017996 0.023299
v 0.490368 0.406088 0.023453
v -0.054935 0.472733 0.009098
v -0.486571 0.261041 -0.008248
v -0.595974 0.032848 -0.016594
v -0.188573 -0.290288 -0.308525
v -0.240725 -0.392638 -0.015887
v -0.205799 -0.303686 0.283613
v -0.229659 -0.014563 0.417538
v -0.250135 0.216362 0.317141
v -0.259838 0.420041 0.001945
v -0.231569 0.230802 -0.321037
v -0.204992 0.004623 -0.430407
v 0.325480 -0.277963 0.353094
v 0.259636 -0.411453 -0.001756
v 0.345811 -0.262151 -0.345786
v 0.295148 0.015956 -0.410848
v 0.297261 0.240733 -0.329663
v 0.309241 0.451242 0.019206
v 0.277288 0.225198 0.356919
v 0.270756 -0.003014 0.427604
v -0.495748 -0.331135 0.100343
v -0.246144 -0.348685 0.133186
v -0.044838 -0.367341 0.164598
v 0.295296 -0.337955 0.175901
v 0.557784 -0.310346 0.184905
v 0.679100 0.010389 0.254421
v 0.487227 0.329053 0.189044
v 0.288025 0.395479 0.203291
v -0.056360 0.417328 0.198840
v -0.263825 0.388610 0.160879
v -0.474440 0.251795 0.120381
v -0.566758 -0.033867 0.127232
v -0.488645 -0.325610 -0.143839
v -0.237531 -0.341987 -0.162883
v -0.034716 -0.359467 -0.183357
v 0.305462 -0.330049 -0.173539
v 0.567994 -0.302407 -0.166019
v 0.692721 0.020983 -0.213804
v 0.496955 0.336619 -0.145352
v 0.298830 0.403883 -0.168133
v -0.045260 0.425961 -0.182716
v -0.254543 0.395830 -0.158210
v -0.466975 0.257601 -0.136242
v -0.558362 -0.027337 -0.161347
v -0.235549 -0.496072 0.132895
v -0.220035 -0.497170 0.282220
v -0.037827 -0.480345 0.176323
v -0.045570 -0.495193 0.307508
v -0.026887 -0.471836 -0.199749
v -0.026975 -0.480730 -0.331700
v -0.226777 -0.489249 -0.168638
v -0.202611 -0.483618 -0.316706
v 0.342235 -0.502685 0.359461
v 0.319944 -0.504596 0.169885
v 0.507643 -0.507676 0.170105
v 0.475059 -0.494812 0.345530
v 0.494983 -0.479316 -0.339351
v 0.517336 -0.500138 -0.163090
v 0.329937 -0.496823 -0.173638
v 0.363203 -0.486377 -0.361318
v 0.474598 -0.136743 0.363415
v 0.283871 -0.141181 0.406607
v -0.048459 -0.153860 0.399732
v -0.240993 -0.159944 0.363005
v -0.477706 -0.157041 0.271511
v -0.532415 -0.174379 0.146760
v -0.541691 -0.249558 -0.021405
v -0.522759 -0.166868 -0.185177
v -0.460916 -0.143983 -0.305627
v -0.219283 -0.143059 -0.383251
v -0.024950 -0.135575 -0.408416
v 0.307202 -0.123035 -0.395390
v 0.495091 -0.120804 -0.341033
v 0.678897 -0.139946 -0.172768
v 0.755327 -0.164544 0.018250
v 0.667895 -0.148503 0.205421
v -0.045558 0.101913 0.424352
v 0.273128 0.110397 0.422994
v 0.452147 0.109468 0.369747
v 0.629197 0.192695 0.214611
v 0.712806 0.225408 0.025836
v 0.640349 0.201369 -0.168763
v 0.472722 0.125470 -0.337526
v 0.297099 0.129040 -0.400988
v -0.020959 0.121045 -0.421242
v -0.217899 0.118009 -0.388829
v -0.445512 0.109521 -0.305672
v -0.530698 0.123415 -0.141241
v -0.550465 0.123496 -0.013219
v -0.538170 0.117604 0.115600
v -0.462663 0.096181 0.283906
v -0.240278 0.100603 0.380447
v 0.142863 -0.272254 -0.331414
v 0.126418 -0.344963 -0.178713
v 0.109374 -0.414604 -0.006199
v 0.116274 -0.352853 0.169985
v 0.123724 -0.287140 0.326512
v 0.116965 -0.148097 0.428631
v 0.112634 -0.007166 0.447317
v 0.113526 0.105953 0.432579
v 0.115364 0.219808 0.385331
v 0.115733 0.410653 0.201159
v 0.126860 0.474459 0.014426
v 0.126685 0.419171 -0.175331
v 0.137269 0.236845 -0.367650
v 0.138329 0.125244 -0.420021
v 0.138443 0.012908 -0.439883
v 0.141867 -0.128729 -0.427364
v -0.631510 -0.162468 0.123713
v -0.649164 -0.231051 -0.024112
v -0.664997 -0.053367 0.115490
v -0.687236 0.013553 -0.019686
v -0.623041 -0.155881 -0.167412
v -0.657093 -0.047220 -0.156226
v -0.668009 -0.116856 -0.022077
v -0.531544 -0.221107 -0.116313
v -0.635703 -0.205740 -0.107732
v -0.537113 -0.225438 0.075121
v -0.640618 -0.209562 0.061207
v -0.576707 0.012140 -0.111821
v -0.582245 0.007833 0.078558
v -0.671989 -0.002759 -0.104761
v -0.676936 -0.006607 0.065308
v -0.540215 -0.087808 -0.192131
v -0.550349 -0.095690 0.156253
v -0.639776 -0.101324 -0.171835
v -0.648545 -0.108144 0.129618
v -0.363861 0.300995 0.220229
v -0.350846 0.311118 -0.227171
v 0.601442 0.304672 -0.081162
v 0.595309 0.299902 0.129655
v -0.363861 0.300995 0.220229
v -0.420294 0.210728 0.272095
v -0.474440 0.251795 0.120381
v -0.466975 0.257601 -0.136242
v -0.350846 0.311118 -0.227171
v -0.404051 0.223362 -0.286255
v -0.363861 0.300995 0.220229
v -0.420294 0.210728 0.272095
v -0.474440 0.251795 0.120381
v -0.250135 0.216362 0.317141
v -0.263825 0.388610 0.160879
v -0.363861 0.300995 0.220229
v -0.255448 0.241559 0.345382
v -0.269139 0.413807 0.189119
v -0.369175 0.326192 0.248470
v -0.258240 0.422285 -0.185544
v -0.354543 0.337573 -0.254505
v -0.235266 0.257256 -0.348371
vt 0.605580 0.674043
vt 0.194109 0.791847
vt 0.146669 0.773274
vt 0.463216 0.483002
vt 0.261189 0.093451
vt 0.356248 0.039451
vt 0.633587 0.671687
vt 0.725284 0.793997
vt 0.983299 0.135241
vt 0.630116 0.606414
vt 0.875375 0.124013
vt 0.758497 0.000818
vt 0.857791 0.403548
vt 0.522994 0.805634
vt 0.459662 0.801447
vt 0.749520 0.444296
vt 0.640540 0.515918
vt 0.017767 0.791611
vt 0.956926 0.628443
vt 0.007859 0.528316
vt 0.089101 0.547553
vt 0.481862 0.168413
vt 0.745490 0.971299
vt 0.971169 0.681210
vt 0.250974 0.455996
vt 0.264521 0.689427
vt 0.224272 0.686410
vt 0.231099 0.623196
vt 0.751918 0.696954
vt 0.443530 0.611888
vt 0.033766 0.159142
vt 0.434417 0.540982
vt 0.321112 0.803580
vt 0.277531 0.803019
vt 0.527410 0.270310
vt 0.566806 0.336692
vt 0.355909 0.604223
vt 0.269199 0.975728
vt 0.360142 0.666031
vt 0.337152 0.628307
vt 0.354231 0.358276
vt 0.254833 0.358334
vt 0.168080 0.669686
vt 0.137109 0.658550
vt 0.481897 0.348411
vt 0.189617 0.631114
vt 0.981050 0.279696
vt 0.641774 0.804494
vt 0.598190 0.804702
vt 0.938453 0.344382
vt 0.816620 0.384809
vt 0.747992 0.338315
vt 0.872806 0.324215
vt 0.295400 0.621973
vt 0.154817 0.354150
vt 0.304626 0.684881
vt 0.320056 0.652080
vt 0.643312 0.399110
vt 0.396298 0.805121
vt 0.626913 0.319127
vt 0.632808 0.118994
vt 0.531472 0.125892
vt 0.522959 0.468076
vt 0.534496 0.532215
vt 0.537259 0.596242
vt 0.530693 0.656959
vt 0.166663 0.035528
vt 0.764399 0.641780
vt 0.130624 0.146831
vt 0.945824 0.560366
vt 0.907438 0.896650
vt 0.836184 0.414380
vt 0.815917 0.639644
vt 0.812646 0.568868
vt 0.820012 0.523312
vt 0.180110 0.903794
vt 0.267535 0.908639
vt 0.306339 0.911027
vt 0.395398 0.919559
vt 0.522966 0.920076
vt 0.459176 0.921436
vt 0.650914 0.910192
vt 0.612092 0.912265
vt 0.738376 0.906055
vt 0.965737 0.512433
vt 0.772979 0.570905
vt 0.076319 0.842354
vt 0.132753 0.841788
vt 0.842660 0.845457
vt 0.013872 0.842221
vt 0.786232 0.844434
vt 0.730008 0.850451
vt 0.608026 0.858758
vt 0.647681 0.857130
vt 0.459418 0.861594
vt 0.522881 0.863000
vt 0.310838 0.857555
vt 0.395946 0.862486
vt 0.271198 0.855605
vt 0.122652 0.901323
vt 0.605705 0.609351
vt 0.590821 0.520431
vt 0.681404 0.382011
vt 0.898527 0.516293
vt 0.907450 0.559978
vt 0.907107 0.628431
vt 0.896169 0.456903
vt 0.681345 0.454822
vt 0.698506 0.589649
vt 0.697985 0.524897
vt 0.706311 0.459580
vt 0.207606 0.654220
vt 0.385128 0.152385
vt 0.772872 0.775809
vt 0.248303 0.737821
vt 0.240130 0.800481
vt 0.188927 0.848260
vt 0.234590 0.853423
vt 0.229925 0.905464
vt 0.418203 0.641240
vt 0.013813 0.258040
vt 0.127420 0.201517
vt 0.263558 0.108082
vt 0.200186 0.124698
vt 0.262251 0.187879
vt 0.326084 0.127303
vt 0.496870 0.268036
vt 0.390377 0.206958
vt 0.367142 0.248699
vt 0.109117 0.647121
vt 0.688548 0.907321
vt 0.684305 0.855244
vt 0.679194 0.802259
vt 0.991091 0.214336
vt 0.901695 0.218408
vt 0.752858 0.109585
vt 0.749620 0.216656
vt 0.601380 0.212194
vt 0.257883 0.290243
vt 0.329760 0.275949
vt 0.186063 0.272976
vt 0.149325 0.244192
vt 0.188657 0.111957
vt 0.149204 0.193817
vt 0.151981 0.155423
vt 0.197129 0.263017
vt 0.159732 0.231148
vt 0.333150 0.114946
vt 0.370559 0.161283
vt 0.323870 0.265639
vt 0.260469 0.276756
vt 0.373855 0.198465
vt 0.362223 0.235338
vt 0.147524 0.192921
vt 0.153604 0.156794
vt 0.375058 0.197629
vt 0.371719 0.159970
vt 0.196064 0.263009
vt 0.260217 0.276925
vt 0.324431 0.265665
vt 0.363277 0.234975
vt 0.199160 0.122915
vt 0.263768 0.110053
vt 0.326674 0.125554
vt 0.158187 0.230732
vt 0.123253 0.202703
vt 0.134585 0.147201
vt 0.393742 0.208300
vt 0.388343 0.152164
vt 0.183577 0.276208
vt 0.257454 0.293970
vt 0.331389 0.279267
vt 0.369842 0.251236
vt 0.186245 0.110577
vt 0.261514 0.095308
vt 0.334876 0.113652
vt 0.145786 0.246600
vt 0.024142 0.338939
vt 0.033312 0.420272
vt 0.169958 0.607762
vt 0.466821 0.429242
vt 0.119964 0.567705
vt 0.147275 0.590013
vt 0.404343 0.562294
vt 0.377900 0.585625
vt 0.350349 0.453554
vt 0.078134 0.515451
vt 0.449317 0.068831
vt 0.151105 0.449431
vt 0.263205 0.620286
vt 0.444155 0.508487
vt 0.262095 0.010836
vt 0.070146 0.060986
vt 0.390666 0.653726
vt 0.316449 0.982888
vt 0.648707 0.977265
vt 0.691518 0.970107
vt 0.082692 0.618754
vt 0.047867 0.595610
vt 0.172468 0.968979
vt 0.226447 0.968224
vt 0.517715 0.990399
vt 0.601400 0.984042
vt 0.032253 0.558387
vt 0.007533 0.959990
vt 0.400080 0.989922
vt 0.458897 0.990178
vt 0.491636 0.549646
vt 0.477450 0.587436
vt 0.631480 0.743067
vt 0.584923 0.744750
vt 0.288322 0.741677
vt 0.334863 0.743737
vt 0.717457 0.728567
vt 0.671529 0.739534
vt 0.202465 0.726482
vt 0.520569 0.204601
vt 0.836824 0.785036
vt 0.827419 0.697159
vt 0.858559 0.967487
vt 0.847494 0.899968
vt 0.526249 0.736849
vt 0.459916 0.738542
vt 0.886925 0.680994
vt 0.628962 0.451588
vt 0.795851 0.904049
vt 0.082645 0.781983
vt 0.092761 0.694184
vt 0.059432 0.964252
vt 0.071045 0.896824
vt 0.393600 0.736311
vt 0.585453 0.728726
vt 0.762453 0.718399
vt 0.801318 0.957527
vt 0.750344 0.522184
vt 0.116753 0.954755
vt 0.157552 0.715950
vt 0.645967 0.024063
vt 0.533861 0.047007
vt 0.984020 0.056321
vt 0.871046 0.028720
vt 0.973022 0.398653
vt 0.960125 0.441120
vt 0.940718 0.379035
vt 0.929183 0.428831
vt 0.819700 0.456505
vt 0.819429 0.691914
vt 0.852218 0.466202
vt 0.874419 0.419071
vt 0.905106 0.845830
vt 0.011129 0.893021
vt 0.901621 0.795190
vt 0.910492 0.963646
vt 0.033388 0.677538
vt 0.961511 0.459861
vt 0.905796 0.679030
vt 0.752474 0.467638
vt 0.819920 0.461794
vt 0.514868 0.518669
vt 0.058117 0.490710
vt 0.656723 0.725826
vt 0.599008 0.456261
vt 0.690924 0.430878
vt 0.727083 0.692716
vt 0.708271 0.650577
vt 0.656942 0.416763
vt 0.647016 0.451562
vt 0.512360 0.439919
vt 0.514232 0.699562
vt 0.515245 0.413342
vt 0.545366 0.453643
vt 0.553217 0.416962
vt 0.337152 0.628307
vt 0.320056 0.652080
vt 0.295400 0.621973
vt 0.231099 0.623196
vt 0.207606 0.654220
vt 0.189617 0.631114
vt 0.337152 0.628307
vt 0.320056 0.652080
vt 0.295400 0.621973
vt 0.360142 0.666031
vt 0.304626 0.684881
vt 0.320056 0.652080
vt 0.360142 0.666031
vt 0.304626 0.684881
vt 0.320056 0.652080
vt 0.207606 0.654220
vt 0.224272 0.686410
vt 0.168080 0.669686
vn 0.566727 -0.162948 0.807631
vn 0.134909 -0.213961 0.967481
vn -0.308351 -0.414286 0.856322
vn -0.245291 -0.969014 -0.029060
vn -0.927490 -0.372168 -0.035402
vn -0.333508 -0.860640 -0.384801
vn 0.612909 -0.127028 -0.779876
vn 0.191176 -0.170198 -0.966688
vn 0.460421 -0.013131 -0.887604
vn 0.557104 -0.806119 -0.199517
vn 0.804247 -0.339100 -0.488055
vn 0.349412 -0.936904 -0.011033
vn 0.343818 0.795108 -0.499593
vn 0.201874 0.840737 -0.502402
vn 0.208684 0.977577 0.028189
vn 0.358770 0.932893 0.031545
vn -0.095834 -0.968468 -0.229969
vn 0.107621 -0.994004 -0.019359
vn -0.188700 -0.950473 -0.246969
vn -0.098771 -0.994786 -0.025381
vn -0.352110 -0.664801 -0.658830
vn -0.446278 -0.292769 -0.845649
vn -0.224618 -0.316522 -0.921608
vn -0.254012 -0.486415 -0.835989
vn -0.706410 0.707789 -0.004536
vn -0.391527 0.920118 0.009429
vn -0.325985 0.858320 -0.396258
vn -0.725922 0.650118 -0.224461
vn -0.301517 -0.523362 0.796982
vn -0.277371 -0.357550 0.891753
vn -0.494274 -0.330098 0.804195
vn -0.388921 -0.693432 0.606542
vn 0.160404 0.600994 0.782992
vn 0.182298 0.279033 0.942819
vn 0.362151 0.282176 0.888383
vn 0.305859 0.579613 0.755314
vn -0.656478 0.277862 0.701306
vn -0.308951 0.289951 0.905802
vn -0.261035 0.529357 0.807244
vn -0.560749 0.402449 0.723599
vn -0.869225 0.340681 -0.358309
vn -0.901849 0.431738 -0.016467
vn -0.214386 0.565638 -0.796299
vn -0.256180 0.330994 -0.908193
vn -0.614986 0.310133 -0.724990
vn -0.518287 0.435475 -0.736030
vn 0.412785 0.321557 -0.852179
vn 0.236404 0.321114 -0.917060
vn 0.204837 0.635552 -0.744389
vn 0.348466 0.612751 -0.709301
vn 0.619816 0.730641 -0.286342
vn 0.878183 0.476943 0.036338
vn 0.720888 0.436195 -0.538566
vn -0.738592 0.640264 0.211053
vn -0.889022 0.325283 0.322228
vn -0.139039 0.659292 0.738920
vn -0.139039 0.659292 0.738920
vn -0.139039 0.659292 0.738920
vn 0.313164 0.771266 0.554145
vn 0.171237 0.816909 0.550761
vn 0.687805 0.410464 0.598702
vn 0.774976 -0.361866 0.518136
vn 0.408087 -0.053835 0.911354
vn -0.401235 -0.764765 0.504128
vn -0.423934 -0.811291 -0.402601
vn 0.482938 -0.721387 -0.496358
vn 0.471522 -0.766044 0.436857
vn -0.354170 -0.876711 0.325487
vn -0.201481 -0.960414 0.192383
vn -0.868915 -0.296729 0.396154
vn 0.205634 -0.968455 -0.140748
vn -0.042920 -0.998794 -0.023847
vn -0.416189 -0.799139 0.433779
vn -0.370119 -0.795095 -0.480454
vn 0.370654 -0.854313 -0.364371
vn 0.312628 -0.804472 0.505063
vn -0.120028 -0.388118 0.913760
vn -0.138282 0.296147 0.945079
vn -0.132602 0.577959 0.805220
vn -0.123966 0.819748 0.559148
vn -0.349586 0.839964 0.415030
vn -0.092346 0.844341 -0.527789
vn -0.103296 0.994460 0.019495
vn -0.083526 0.338734 -0.937167
vn -0.086352 0.613931 -0.784622
vn -0.066223 -0.346270 -0.935795
vn 0.154099 -0.485913 -0.860315
vn 0.198382 -0.974096 0.108548
vn 0.039839 -0.939698 0.339676
vn -0.009414 -0.772725 0.634671
vn 0.060742 -0.923440 -0.378905
vn 0.037030 -0.999082 -0.021528
vn 0.028494 -0.743241 -0.668417
vn 0.073557 -0.297568 -0.951863
vn 0.080647 0.634167 -0.768979
vn 0.086848 0.313027 -0.945765
vn 0.062662 0.997737 0.024397
vn 0.074907 0.853894 -0.515027
vn 0.034997 0.598662 0.800237
vn 0.043733 0.829649 0.556570
vn 0.031338 0.269854 0.962391
vn 0.104490 -0.524496 0.844977
vn 0.545628 -0.815045 0.194916
vn -0.107761 -0.977744 0.180013
vn 0.601170 0.716139 0.354596
vn 0.342502 -0.781236 -0.521883
vn 0.349980 -0.870392 0.346312
vn -0.396363 -0.815508 0.421715
vn -0.389232 -0.778172 -0.492897
vn 0.497115 -0.746138 -0.442894
vn 0.454228 -0.743716 0.490472
vn -0.445544 -0.828098 0.340212
vn -0.370261 -0.740674 -0.560633
vn -0.627821 0.659242 -0.413813
vn -0.627821 0.659242 -0.413813
vn -0.627821 0.659242 -0.413813
vn -0.844039 -0.277382 -0.458975
vn -0.257531 -0.374759 -0.890637
vn 0.339345 -0.013095 0.940571
vn 0.184242 -0.032825 0.982333
vn 0.018517 -0.340375 0.940107
vn 0.027122 -0.047689 0.998494
vn -0.123194 -0.066935 0.990123
vn -0.300653 -0.060904 0.951787
vn -0.597678 0.004721 0.801722
vn -0.878609 -0.101614 0.466605
vn -0.986230 -0.162181 -0.032362
vn -0.975162 -0.122121 0.184784
vn -0.984808 -0.170575 -0.032508
vn -0.962617 -0.112366 -0.246462
vn -0.550092 0.041732 -0.834061
vn -0.849880 -0.079268 -0.520981
vn -0.857581 0.177491 -0.482755
vn -0.244763 -0.017435 -0.969426
vn -0.065369 -0.021960 -0.997620
vn 0.085154 -0.002554 -0.996364
vn 0.241050 0.011358 -0.970446
vn 0.393438 0.028977 -0.918895
vn 0.798016 0.097516 -0.594694
vn 0.895008 -0.445764 0.015950
vn 0.993901 0.105737 0.031305
vn 0.761985 0.069493 0.643855
vn -0.921291 0.388457 -0.018012
vn -0.893898 0.276264 -0.353021
vn -0.913262 0.261204 0.312608
vn -0.884414 0.156621 0.439639
vn -0.173706 -0.984418 -0.027326
vn -0.198201 -0.882024 0.427493
vn -0.194766 -0.896150 0.398726
vn -0.173706 -0.984418 -0.027326
vn -0.240040 -0.173680 0.955100
vn -0.240947 0.024504 0.970229
vn -0.239704 0.073430 0.968065
vn -0.240040 -0.173680 0.955100
vn -0.211438 0.698477 0.683684
vn -0.209378 0.846394 0.489671
vn -0.206639 0.878204 0.431345
vn -0.211438 0.698477 0.683684
vn -0.178752 -0.749815 -0.637044
vn -0.171868 -0.861543 -0.477708
vn -0.170092 -0.876959 -0.449457
vn -0.178752 -0.749815 -0.637044
vn -0.193349 0.980990 0.016571
vn -0.181685 0.867932 -0.462260
vn -0.182382 0.897070 -0.402495
vn -0.193349 0.980990 0.016570
vn -0.173643 0.322958 -0.930347
vn -0.184200 0.068642 -0.980489
vn -0.183149 0.117418 -0.976048
vn -0.173643 0.322958 -0.930347
vn -0.961129 -0.214851 0.173407
vn -0.949385 -0.282166 0.138024
vn -0.949146 -0.205536 -0.238488
vn -0.939390 -0.274393 -0.205560
vn -0.972051 -0.204343 0.115591
vn -0.984739 -0.149867 0.088484
vn -0.963423 -0.197633 -0.180991
vn -0.977736 -0.144423 -0.152233
vn -0.927688 -0.315372 0.199840
vn -0.914093 -0.304800 -0.267452
vn -0.214478 -0.777600 0.591047
vn -0.214478 -0.777600 0.591047
vn -0.172276 0.728936 -0.662551
vn -0.172276 0.728936 -0.662551
vn -0.988882 -0.145209 -0.032051
vn -0.183912 -0.130025 -0.974305
vn -0.183912 -0.130025 -0.974305
vn -0.227829 0.280813 0.932330
vn -0.227829 0.280813 0.932330
vn -0.225223 0.587432 0.777302
vn -0.547647 0.805853 -0.225131
vn -0.560861 0.795575 0.229119
vn -0.651670 0.640693 0.406003
vn -0.651670 0.640693 0.406003
vn -0.651670 0.640693 0.406003
vn -0.096737 0.692192 -0.715201
vn -0.096737 0.692192 -0.715201
vn -0.096737 0.692192 -0.715201
vn -0.180450 0.622254 -0.761734
vn -0.000000 0.000000 0.000000
vn -0.000000 0.000000 0.000000
vn -0.000000 0.000000 0.000000
vn -0.000000 0.000000 0.000000
vn -0.000000 0.000000 0.000000
vn -0.000000 0.000000 0.000000
vn -0.000000 0.000000 0.000000
vn -0.000000 0.000000 0.000000
vn -0.000000 0.000000 0.000000
vn -0.000000 0.000000 0.000000
vn -0.000000 0.000000 0.000000
vn -0.000000 0.000000 0.000000
vn -0.000000 0.000000 0.000000
vn -0.000000 0.000000 0.000000
vn -0.000000 0.000000 0.000000
vn -0.000000 0.000000 0.000000
vn -0.000000 0.000000 0.000000
vn -0.000000 0.000000 0.000000
vn -0.000000 0.000000 0.000000
vn -0.000000 0.000000 0.000000
vn -0.000000 0.000000 0.000000
vn -0.000000 0.000000 0.000000
vn -0.000000 0.000000 0.000000
vn -0.000000 0.000000 0.000000
vn -0.000000 0.000000 0.000000
vn -0.000000 0.000000 0.000000
vn -0.000000 0.000000 0.000000
vn -0.000000 0.000000 0.000000
vn -0.000000 0.000000 0.000000
vn -0.000000 0.000000 0.000000
vn -0.000000 0.000000 0.000000
vn -0.000000 0.000000 0.000000
vn -0.000000 0.000000 0.000000
vn -0.000000 0.000000 0.000000
vn -0.000000 0.000000 0.000000
vn -0.000000 0.000000 0.000000
vn -0.000000 0.000000 0.000000
vn -0.000000 0.000000 0.000000
vn -0.000000 0.000000 0.000000
vn -0.000000 0.000000 0.000000
vn -0.000000 0.000000 0.000000
vn -0.000000 0.000000 0.000000
vn -0.000000 0.000000 0.000000
vn -0.000000 0.000000 0.000000
vn -0.000000 0.000000 0.000000
vn -0.000000 0.000000 0.000000
vn -0.000000 0.000000 0.000000
vn -0.000000 0.000000 0.000000
vn 0.988542 0.136682 0.064055
vn 0.988542 0.136682 0.064055
vn 0.988542 0.136682 0.064055
vn 0.988542 0.136682 0.064055
vn -0.713279 0.450935 -0.536554
vn -0.713279 0.450935 -0.536554
vn -0.713279 0.450935 -0.536554
vn -0.713279 0.450935 -0.536554
vn -0.736250 -0.567833 0.368106
vn -0.736250 -0.567833 0.368106
vn -0.736250 -0.567833 0.368106
vn -0.736250 -0.567833 0.368106
vn -0.743841 0.427165 0.514034
vn -0.743841 0.427165 0.514034
vn -0.743841 0.427165 0.514034
vn -0.743841 0.427165 0.514034
vn 0.990413 0.138139 -0.000268
vn 0.990413 0.138139 -0.000268
vn 0.990413 0.138139 -0.000268
vn 0.990413 0.138139 -0.000268
vn -0.712871 -0.549650 -0.435546
vn -0.712871 -0.549650 -0.435546
vn -0.712871 -0.549650 -0.435546
vn -0.712871 -0.549650 -0.435546
usemtl aiStandardSurface5SG
f 1/237/1 84/2/2 35/3/3
f 19/192/4 89/5/5 55/6/6
f 7/233/7 94/8/8 95/214/9
f 59/241/10 96/11/11 21/12/12
f 61/222/13 62/14/14 40/15/15 23/223/16
f 58/218/17 59/219/10 21/224/12 36/252/18
f 55/187/6 56/204/19 28/20/20 19/260/4
f 5/21/21 91/182/22 92/198/23 27/199/24
f 25/190/25 32/26/26 64/27/27 65/28/28
f 29/209/29 86/30/30 87/184/31 3/32/32
f 41/33/33 100/34/34 101/212/35 2/213/36
f 113/37/37 114/194/38 31/39/39 4/40/40
f 65/186/28 110/41/41 111/42/42 25/25/25
f 33/43/43 108/44/44 109/180/45 6/46/46
f 105/210/47 106/48/48 39/49/49 8/211/50
f 152/51/51 103/52/52 104/53/53
f 53/189/54 112/55/55 113/178/37 4/179/40
f 166/285/56 167/286/57 168/287/58
f 2/213/36 49/231/59 50/59/60 41/33/33
f 2/36/36 102/60/61 49/58/59
f 1/239/1 98/61/62 83/62/63
f 75/270/64 76/272/65 77/271/66 78/268/67
f 43/191/68 44/208/69 29/209/29 3/32/32
f 3/193/32 87/31/31 88/69/70 43/67/68
f 56/220/19 57/221/71 20/71/72 28/253/20
f 68/72/73 67/249/74 69/248/75 70/246/76
f 29/236/29 85/76/77 86/200/30
f 31/195/39 114/38/38 99/77/78 12/78/79
f 12/78/79 51/79/80 52/206/81 31/195/39
f 63/80/82 64/202/27 32/207/26 24/81/83
f 107/82/84 108/196/44 33/203/43 11/83/85
f 27/234/24 93/84/86 10/226/87
f 45/230/88 118/87/89 119/88/90
f 57/221/71 116/89/91 117/250/92 20/71/72
f 115/91/93 93/84/86 130/92/94
f 127/93/95 128/94/96 107/82/84 11/83/85
f 24/81/83 125/95/97 126/96/98 63/80/82
f 123/97/99 124/98/100 51/79/80 12/78/79
f 99/77/78 122/99/101 123/97/99 12/78/79
f 119/88/90 85/76/77 9/100/102
f 19/4/4 28/259/20 44/208/69 43/191/68
f 45/230/88 44/229/69 28/205/20 20/251/72
f 20/251/72 117/90/92 118/87/89 45/230/88
f 47/228/103 46/227/104 36/18/18 21/254/12
f 21/12/12 98/61/62 47/238/103
f 103/52/52 153/103/105 102/60/61
f 50/59/60 49/231/59 23/223/16 40/15/15
f 51/79/80 124/98/100 125/95/97 24/81/83
f 52/206/81 51/79/80 24/81/83 32/207/26
f 53/54/54 52/56/81 32/26/26 25/190/25
f 25/25/25 111/42/42 112/55/55 53/189/54
f 43/67/68 89/5/5 19/192/4
f 27/199/24 56/204/19 55/187/6 5/21/21
f 72/243/106 71/245/107 73/244/108 74/242/109
f 115/91/93 57/221/71 10/226/87
f 79/108/110 80/267/111 81/266/112 82/263/113
f 7/240/7 96/11/11 59/241/10
f 8/50/50 104/53/53 105/47/47
f 39/49/49 62/14/14 61/222/13 8/211/50
f 63/80/82 126/96/98 127/93/95 11/83/85
f 33/203/43 64/202/27 63/80/82 11/83/85
f 157/276/114 158/277/115 159/278/116
f 109/45/45 110/41/41 65/186/28 6/181/46
f 55/6/6 90/169/117 91/22/22 5/188/21
f 29/29/29 67/73/74 68/247/73
f 44/68/69 45/86/88 67/73/74
f 45/86/88 9/235/102 70/75/76
f 9/235/102 29/257/29 70/75/76
f 72/104/106 57/70/71 71/105/107
f 57/70/71 73/106/108 71/105/107
f 56/19/19 27/24/24 73/106/108
f 27/255/24 72/104/106 74/107/109
f 35/262/3 46/102/104 75/63/64
f 46/102/104 77/65/66 76/64/65
f 47/101/103 1/1/1 77/65/66
f 1/1/1 75/269/64 78/66/67
f 7/7/7 80/109/111 79/265/110
f 59/10/10 58/17/17 80/109/111
f 58/17/17 82/111/113 81/110/112
f 37/261/118 7/7/7 82/264/113
f 84/2/2 83/216/63 13/115/119 42/116/120
f 85/76/77 120/117/121 121/118/122 14/119/123
f 86/200/30 85/76/77 14/119/123 30/201/124
f 87/184/31 86/30/30 30/120/124 15/185/125
f 88/69/70 87/31/31 147/166/126
f 132/163/127 141/124/128 137/125/129
f 137/125/129 139/126/130 132/163/127
f 16/127/131 146/168/132 66/173/133
f 92/198/23 91/182/22 16/183/131 34/130/134
f 93/84/86 92/23/23 34/197/134 17/131/135
f 129/132/136 130/92/94 93/84/86 17/131/135
f 95/214/9 94/8/8 38/133/137 18/215/138
f 96/11/11 95/9/9 60/135/139
f 97/136/140 96/11/11 22/137/141
f 98/61/62 97/136/140 22/137/141
f 83/62/63 48/138/142 13/217/119
f 14/119/123 121/118/122 122/99/101 99/77/78
f 101/212/35 100/34/34 42/116/120 13/115/119
f 101/35/35 48/138/142 102/60/61
f 22/137/141 102/60/61 48/138/142
f 104/53/53 22/137/141 60/135/139
f 105/47/47 60/135/139 18/134/138
f 18/215/138 38/133/137 106/48/48 105/210/47
f 107/82/84 128/94/96 129/132/136 17/131/135
f 17/131/135 34/197/134 108/196/44 107/82/84
f 109/180/45 108/44/44 34/130/134 16/183/131
f 16/127/131 66/173/133 110/41/41 109/45/45
f 26/171/143 110/41/41 142/172/144
f 112/55/55 143/170/145 54/177/146
f 113/178/37 112/55/55 54/177/146 15/121/125
f 15/185/125 30/120/124 114/194/38 113/37/37
f 99/77/78 114/38/38 30/201/124 14/119/123
f 115/91/93 58/218/17 116/89/91
f 117/250/92 116/89/91 58/218/17 36/252/18
f 118/87/89 117/90/92 36/18/18 46/227/104
f 119/88/90 46/227/104 35/3/3
f 35/3/3 84/2/2 119/88/90
f 121/118/122 120/117/121 84/2/2 42/116/120
f 122/99/101 121/118/122 42/116/120 100/34/34
f 123/97/99 122/99/101 100/34/34 41/33/33
f 41/33/33 50/59/60 124/98/100 123/97/99
f 125/95/97 124/98/100 50/59/60 40/15/15
f 126/96/98 125/95/97 40/15/15 62/14/14
f 127/93/95 126/96/98 62/14/14 39/49/49
f 39/49/49 106/48/48 128/94/96 127/93/95
f 129/132/136 128/94/96 106/48/48 38/133/137
f 94/8/8 130/92/94 129/132/136 38/133/137
f 115/91/93 130/92/94 94/8/8
f 47/238/103 98/61/62 1/239/1
f 7/240/7 95/9/9 96/11/11
f 21/12/12 96/11/11 97/136/140
f 21/12/12 97/136/140 98/61/62
f 101/35/35 102/60/61 2/36/36
f 61/13/13 104/53/53 8/50/50
f 61/13/13 152/51/51 104/53/53
f 49/58/59 102/60/61 153/103/105
f 89/175/147 140/143/148 141/162/149 132/123/150
f 88/167/151 147/122/152 149/154/153 131/145/154
f 54/142/155 143/141/156 145/158/157 133/165/158
f 90/113/159 138/148/160 139/164/161 135/157/162
f 26/139/163 142/140/164 144/160/165 134/159/166
f 66/129/167 146/128/168 148/156/169 136/161/170
f 137/125/129 131/155/171 149/144/172
f 135/149/173 137/125/129 148/152/174
f 137/125/129 133/147/175 145/146/176
f 136/153/177 137/125/129 144/150/178
f 43/67/68 140/174/179 89/5/5
f 55/6/6 138/176/180 90/169/117
f 55/6/6 89/5/5 138/176/180
f 139/164/161 138/148/160 89/175/147 132/123/150
f 43/67/68 88/69/70 140/174/179
f 141/162/149 140/143/148 88/167/181 131/145/182
f 137/125/129 141/124/128 131/155/171
f 137/125/129 135/149/173 139/126/130
f 112/55/55 111/42/42 26/171/143
f 111/42/42 110/41/41 26/171/143
f 142/172/144 110/41/41 66/173/133
f 112/55/55 26/171/143 143/170/145
f 144/160/165 142/140/164 66/129/183 136/161/184
f 145/158/157 143/141/156 26/139/163 134/159/166
f 137/125/129 145/146/176 134/151/185
f 144/150/178 137/125/129 134/151/185
f 91/22/22 146/168/132 16/127/131
f 147/166/126 15/121/125 54/177/146
f 91/22/22 90/169/117 146/168/132
f 147/166/126 87/31/31 15/121/125
f 148/156/169 146/128/168 90/113/186 135/157/187
f 149/154/153 147/122/152 54/142/188 133/165/189
f 137/125/129 149/144/172 133/147/175
f 148/152/174 137/125/129 136/153/177
f 37/114/118 94/8/8 7/233/7
f 1/237/1 83/216/63 84/2/2
f 27/234/24 92/23/23 93/84/86
f 9/100/102 85/76/77 29/236/29
f 10/226/87 93/84/86 115/91/93
f 119/88/90 120/117/121 85/76/77
f 115/91/93 94/8/8 37/114/118
f 119/88/90 84/2/2 120/117/121
f 115/91/93 116/89/91 57/221/71
f 45/230/88 119/88/90 9/100/102
f 37/114/118 58/218/17 115/91/93
f 119/88/90 118/87/89 46/227/104
f 31/39/39 150/57/190 4/40/40
f 65/28/28 64/27/27 151/112/191
f 150/57/192 52/56/81 53/54/54
f 161/279/193 160/280/194 162/281/195
f 170/288/196 169/289/197 171/290/198
f 6/46/46 151/112/199 33/43/43
f 23/16/16 152/51/51 61/13/13
f 23/16/16 103/52/52 152/51/51
f 23/16/16 153/103/105 103/52/52
f 49/58/59 153/103/105 23/16/16
f 104/53/53 103/52/52 22/137/141
f 103/52/52 102/60/61 22/137/141
f 22/137/141 96/11/11 60/135/139
f 98/61/62 22/137/141 48/138/142
f 13/217/119 48/138/142 101/35/35
f 105/47/47 104/53/53 60/135/139
f 83/62/63 98/61/62 48/138/142
f 60/135/139 95/9/9 18/134/138
f 77/65/66 1/1/1 78/66/67
f 7/7/7 59/10/10 80/109/111
f 1/1/1 35/232/3 75/269/64
f 82/264/113 7/7/7 79/265/110
f 75/63/64 46/102/104 76/64/65
f 58/17/17 37/225/118 82/111/113
f 46/102/104 47/101/103 77/65/66
f 80/109/111 58/17/17 81/110/112
f 70/75/76 29/257/29 68/258/73
f 27/255/24 10/85/87 72/104/106
f 45/86/88 70/75/76 69/74/75
f 10/85/87 57/70/71 72/104/106
f 29/29/29 44/68/69 67/73/74
f 73/106/108 27/24/24 74/256/109
f 67/73/74 45/86/88 69/74/75
f 57/70/71 56/19/19 73/106/108
f 4/40/200 150/57/201 154/274/202 155/273/203
f 150/57/204 53/54/205 156/275/206 154/274/207
f 53/54/208 4/40/209 155/273/210 156/275/211
f 65/28/212 151/112/213 158/277/214 157/276/215
f 151/112/216 6/46/217 159/278/218 158/277/219
f 6/46/220 65/28/221 157/276/222 159/278/223
f 155/273/224 154/274/225 160/280/226 161/279/227
f 154/274/228 156/275/229 162/281/230 160/280/231
f 156/275/232 155/273/233 161/279/234 162/281/235
f 31/39/236 52/56/237 164/283/238 163/282/239
f 52/56/240 150/57/241 165/284/242 164/283/243
f 150/57/244 31/39/245 163/282/246 165/284/247
f 163/282/248 164/283/249 167/286/250 166/285/251
f 164/283/252 165/284/253 168/287/254 167/286/255
f 165/284/256 163/282/257 166/285/258 168/287/259
f 151/112/260 64/27/261 169/289/262 170/288/263
f 64/27/264 33/43/265 171/290/266 169/289/267
f 33/43/268 151/112/269 170/288/270 171/290/271
