# This file uses centimeters as units for non-parametric coordinates.

v -0.274859 -0.500000 0.351162
v 0.291812 -0.500000 0.361539
v -0.279553 0.500000 0.244348
v 0.269713 0.500000 0.256797
v -0.279553 0.500000 -0.244348
v 0.269713 0.500000 -0.256797
v -0.274859 -0.500000 -0.351162
v 0.291812 -0.500000 -0.361539
v -0.305390 0.000000 0.348192
v -0.305390 0.000000 -0.348192
v 0.350430 0.000000 -0.381815
v 0.350430 0.000000 0.381815
v 0.000000 -0.500000 0.405730
v 0.000000 0.000000 0.500000
v 0.000000 0.500000 0.400984
v 0.000000 0.500000 -0.400984
v 0.000000 0.000000 -0.500000
v 0.000000 -0.500000 -0.405730
v -0.354667 0.500000 0.000000
v -0.500000 0.000000 0.000000
v -0.441593 -0.500000 0.000000
v 0.000000 -0.500000 0.000000
v 0.438235 -0.500000 0.000000
v 0.500000 0.000000 0.000000
v 0.354635 0.500000 0.000000
v 0.000000 0.500000 0.000000
vn -0.333562 -0.095809 0.937847
vn -0.036510 -0.115559 0.992629
vn -0.033910 0.059151 0.997673
vn -0.405617 0.057487 0.912234
vn -0.000000 1.000000 0.000000
vn 0.000000 1.000000 0.000000
vn 0.000000 1.000000 0.000000
vn -0.000000 1.000000 0.000000
vn -0.405617 0.057487 -0.912234
vn -0.033910 0.059151 -0.997673
vn -0.036510 -0.115559 -0.992629
vn -0.333562 -0.095809 -0.937847
vn 0.000000 -1.000000 0.000000
vn 0.000000 -1.000000 0.000000
vn 0.000000 -1.000000 0.000000
vn 0.000000 -1.000000 0.000000
vn 0.998610 0.052715 -0.000000
vn 0.991850 -0.127411 0.000000
vn 0.922510 -0.118503 -0.367331
vn 0.932477 0.042070 -0.358771
vn -0.885754 -0.077418 -0.457654
vn -0.996202 -0.087072 0.000000
vn -0.998813 0.048707 -0.000000
vn -0.897175 0.039002 -0.439951
vn -0.976963 0.213408 0.000000
vn -0.892671 0.194996 -0.406344
vn -0.458109 0.188076 -0.868771
vn -0.037636 0.231297 -0.972155
vn 0.964945 0.262453 0.000000
vn 0.909540 0.247384 -0.333974
vn -0.037636 0.231297 0.972155
vn -0.458109 0.188076 0.868771
vn 0.243210 -0.124445 0.961958
vn 0.319003 0.059407 0.945890
vn 0.379077 0.231329 0.895984
vn 0.000000 1.000000 0.000000
vn 0.000000 1.000000 0.000000
vn 0.379077 0.231329 -0.895984
vn 0.319003 0.059407 -0.945890
vn 0.243210 -0.124445 -0.961958
vn 0.000000 -1.000000 0.000000
vn 0.000000 -1.000000 0.000000
vn 0.000000 1.000000 0.000000
vn 0.000000 1.000000 0.000000
vn 0.932477 0.042070 0.358771
vn 0.909540 0.247384 0.333974
vn 0.922510 -0.118503 0.367331
vn 0.000000 -1.000000 0.000000
vn 0.000000 -1.000000 0.000000
vn 0.000000 -1.000000 0.000000
vn -0.885754 -0.077418 0.457654
vn -0.897175 0.039002 0.439951
vn -0.892671 0.194996 0.406344
vn -0.000000 1.000000 0.000000
f 1/1/1 13/21/2 14/23/3 9/15/4
f 19/29/5 26/39/6 16/25/7 5/5/8
f 10/17/9 17/26/10 18/27/11 7/7/12
f 7/7/13 18/27/14 22/33/15 21/32/16
f 24/36/17 23/35/18 8/11/19 11/19/20
f 7/13/21 21/31/22 20/30/23 10/16/24
f 10/16/24 20/30/23 19/28/25 5/14/26
f 5/5/27 16/25/28 17/26/10 10/17/9
f 25/38/29 24/36/17 11/19/20 6/12/30
f 9/15/4 14/23/3 15/24/31 3/3/32
f 14/23/3 13/21/2 2/2/33 12/20/34
f 15/24/31 14/23/3 12/20/34 4/4/35
f 16/25/7 26/39/6 25/37/36 6/6/37
f 17/26/10 16/25/28 6/6/38 11/18/39
f 18/27/11 17/26/10 11/18/39 8/8/40
f 23/34/41 22/33/15 18/27/14 8/8/42
f 25/37/36 26/39/6 15/24/43 4/4/44
f 12/20/45 24/36/17 25/38/29 4/4/46
f 2/2/47 23/35/18 24/36/17 12/20/45
f 13/22/48 22/33/15 23/34/41 2/10/49
f 21/32/16 22/33/15 13/22/48 1/9/50
f 20/30/23 21/31/22 1/1/51 9/15/52
f 19/28/25 20/30/23 9/15/52 3/3/53
f 3/3/54 15/24/43 26/39/6 19/29/5
