# This file uses centimeters as units for non-parametric coordinates.

v 0.495903 -0.271230 0.359690
v 0.482281 0.294913 0.382487
v -0.500182 -0.296359 0.223257
v -0.513456 0.252341 0.247744
v -0.485976 -0.285310 -0.265106
v -0.498525 0.263953 -0.265502
v 0.516320 -0.255350 -0.342158
v 0.503301 0.311262 -0.340100
v -0.002944 -0.313105 0.341259
v 0.017301 -0.297359 -0.354653
v 0.002862 0.358882 -0.373871
v -0.019337 0.341616 0.389241
v 0.487855 0.002253 0.420249
v -0.014536 -0.011305 0.499661
v -0.509336 -0.018960 0.318162
v -0.489965 -0.003893 -0.347749
v 0.014536 0.011305 -0.499661
v 0.511445 0.020600 -0.390661
v -0.491313 -0.365910 -0.022572
v 0.009863 -0.419367 -0.009202
v 0.508198 -0.352012 0.006819
v 0.499650 0.011427 0.014794
v 0.489349 0.449435 0.024404
v -0.011753 0.499741 0.010965
v -0.507987 0.343025 -0.007017
v -0.499650 -0.011427 -0.014794
v -0.234337 -0.291335 -0.309880
v -0.240725 -0.392638 -0.015887
v -0.251563 -0.304732 0.282258
v -0.262922 -0.015899 0.442790
v -0.266397 0.296978 0.318492
v -0.259870 0.421383 0.001974
v -0.247831 0.311418 -0.319686
v -0.236729 0.004473 -0.457583
v 0.246480 -0.292168 0.350474
v 0.259031 -0.385690 -0.001191
v 0.266811 -0.276355 -0.348406
v 0.262991 0.015953 -0.445161
v 0.253082 0.335072 -0.356985
v 0.238798 0.474588 0.017685
v 0.231472 0.318264 0.385864
v 0.236660 -0.004526 0.459955
v -0.495748 -0.331135 0.100343
v -0.246144 -0.348685 0.133186
v 0.003460 -0.366236 0.166029
v 0.252755 -0.338929 0.174642
v 0.502050 -0.311621 0.183255
v 0.493753 0.006840 0.217521
v 0.485815 0.372174 0.203446
v 0.235135 0.396426 0.201774
v -0.015545 0.420679 0.200103
v -0.263133 0.359181 0.160233
v -0.510721 0.297683 0.120364
v -0.503389 -0.014335 0.113735
v -0.488645 -0.325610 -0.143839
v -0.237531 -0.341987 -0.162883
v 0.013582 -0.358363 -0.181927
v 0.262921 -0.331022 -0.174798
v 0.512259 -0.303681 -0.167669
v 0.505548 0.016013 -0.187934
v 0.496325 0.380348 -0.157848
v 0.245940 0.404830 -0.169650
v -0.004445 0.429312 -0.181453
v -0.253851 0.366400 -0.158856
v -0.503256 0.303489 -0.136259
v -0.495911 -0.008518 -0.143323
v -0.262011 -0.497667 0.177207
v -0.267430 -0.453714 0.326279
v -0.012407 -0.515217 0.210050
v -0.018810 -0.462086 0.385280
v 0.000496 -0.505182 -0.233483
v 0.004215 -0.444178 -0.406209
v -0.250617 -0.488805 -0.214439
v -0.247424 -0.438153 -0.361436
v 0.259138 -0.436369 0.386597
v 0.265413 -0.483130 0.210764
v 0.514709 -0.455822 0.219377
v 0.508561 -0.415431 0.395812
v 0.531245 -0.397788 -0.383963
v 0.527184 -0.446119 -0.209475
v 0.277846 -0.473460 -0.216604
v 0.281736 -0.418793 -0.390211
vt 0.375000 0.000000
vt 0.625000 0.000000
vt 0.375000 0.250000
vt 0.625000 0.250000
vt 0.375000 0.500000
vt 0.625000 0.500000
vt 0.375000 0.750000
vt 0.625000 0.750000
vt 0.375000 1.000000
vt 0.625000 1.000000
vt 0.875000 0.000000
vt 0.875000 0.250000
vt 0.125000 0.000000
vt 0.125000 0.250000
vt 0.375000 0.125000
vt 0.125000 0.125000
vt 0.375000 0.625000
vt 0.625000 0.625000
vt 0.875000 0.125000
vt 0.625000 0.125000
vt 0.500000 0.000000
vt 0.500000 1.000000
vt 0.500000 0.125000
vt 0.500000 0.250000
vt 0.500000 0.500000
vt 0.500000 0.625000
vt 0.500000 0.750000
vt 0.250000 0.250000
vt 0.375000 0.375000
vt 0.250000 0.125000
vt 0.250000 0.000000
vt 0.375000 0.875000
vt 0.500000 0.875000
vt 0.625000 0.875000
vt 0.750000 0.000000
vt 0.750000 0.125000
vt 0.625000 0.375000
vt 0.750000 0.250000
vt 0.500000 0.375000
vt 0.125000 0.187500
vt 0.375000 0.562500
vt 0.250000 0.187500
vt 0.375000 0.187500
vt 0.500000 0.187500
vt 0.625000 0.187500
vt 0.750000 0.187500
vt 0.625000 0.562500
vt 0.875000 0.187500
vt 0.500000 0.562500
vt 0.375000 0.062500
vt 0.250000 0.062500
vt 0.125000 0.062500
vt 0.375000 0.687500
vt 0.500000 0.687500
vt 0.625000 0.687500
vt 0.875000 0.062500
vt 0.750000 0.062500
vt 0.625000 0.062500
vt 0.500000 0.062500
vt 0.312500 0.250000
vt 0.375000 0.312500
vt 0.312500 0.187500
vt 0.312500 0.125000
vt 0.312500 0.062500
vt 0.312500 0.000000
vt 0.375000 0.937500
vt 0.500000 0.937500
vt 0.625000 0.937500
vt 0.687500 0.000000
vt 0.687500 0.062500
vt 0.687500 0.125000
vt 0.687500 0.187500
vt 0.625000 0.312500
vt 0.687500 0.250000
vt 0.500000 0.312500
vt 0.187500 0.250000
vt 0.375000 0.437500
vt 0.187500 0.187500
vt 0.187500 0.125000
vt 0.187500 0.062500
vt 0.187500 0.000000
vt 0.375000 0.812500
vt 0.500000 0.812500
vt 0.625000 0.812500
vt 0.812500 0.000000
vt 0.812500 0.062500
vt 0.812500 0.125000
vt 0.812500 0.187500
vt 0.625000 0.437500
vt 0.812500 0.250000
vt 0.500000 0.437500
vt 0.375000 0.187500
vt 0.312500 0.187500
vt 0.312500 0.125000
vt 0.375000 0.125000
vt 0.125000 0.125000
vt 0.187500 0.125000
vt 0.187500 0.187500
vt 0.125000 0.187500
vt 0.375000 0.062500
vt 0.312500 0.062500
vt 0.312500 0.000000
vt 0.375000 0.000000
vt 0.125000 0.000000
vt 0.187500 0.000000
vt 0.187500 0.062500
vt 0.125000 0.062500
vn 0.074060 -0.287053 0.955047
vn 0.084622 -0.047786 0.995267
vn 0.087596 -0.056156 0.994572
vn 0.076394 -0.354725 0.931844
vn -0.999301 -0.022853 -0.029588
vn -0.999301 -0.022853 -0.029588
vn -0.999301 -0.022853 -0.029587
vn -0.999301 -0.022853 -0.029587
vn 0.130874 -0.312353 -0.940908
vn 0.145309 -0.011269 -0.989322
vn 0.142369 -0.002872 -0.989809
vn 0.129803 -0.243698 -0.961126
vn 0.998845 0.034989 0.032938
vn 0.999301 0.022853 0.029588
vn 0.999301 0.022853 0.029587
vn 0.999301 0.022853 0.029588
vn 0.107481 0.932043 -0.346039
vn 0.107414 0.933047 -0.343344
vn 0.101595 0.994500 0.025457
vn 0.101630 0.994497 0.025458
vn 0.116494 -0.946389 -0.301293
vn 0.125015 -0.952154 -0.278879
vn 0.121643 -0.992394 -0.018915
vn 0.121615 -0.992397 -0.018916
vn -0.086024 -0.942966 -0.321583
vn -0.086951 -0.941755 -0.324866
vn -0.102471 -0.994410 -0.025480
vn -0.102188 -0.994439 -0.025473
vn -0.271734 -0.359281 -0.892792
vn -0.317849 -0.016989 -0.947989
vn -0.252982 -0.021132 -0.967240
vn -0.213311 -0.396174 -0.893054
vn -0.292381 0.956212 0.013130
vn -0.293331 0.955921 0.013095
vn -0.258882 0.910968 -0.321121
vn -0.259097 0.915459 -0.307900
vn -0.264319 -0.435846 0.860334
vn -0.308726 -0.064488 0.948962
vn -0.372370 -0.059393 0.926182
vn -0.322676 -0.398902 0.858346
vn 0.090711 0.226915 0.969681
vn 0.090002 0.179611 0.979612
vn -0.317252 0.304765 0.898036
vn -0.376442 0.288543 0.880360
vn -0.999301 -0.022853 -0.029587
vn -0.999301 -0.022853 -0.029588
vn -0.264938 0.345453 -0.900261
vn -0.325034 0.328527 -0.886805
vn 0.146601 0.270384 -0.951526
vn 0.146532 0.223577 -0.963609
vn 0.999301 0.022853 0.029587
vn 0.999301 0.022853 0.029587
vn -0.999301 -0.022853 -0.029588
vn -0.999301 -0.022853 -0.029588
vn -0.999301 -0.022853 -0.029588
vn -0.999301 -0.022853 -0.029588
vn -0.270508 0.897388 0.348599
vn -0.278300 0.895865 0.346375
vn -0.277752 0.900950 0.333381
vn -0.268619 0.903315 0.334463
vn 0.088206 0.915116 0.393425
vn 0.085969 0.915312 0.393465
vn 0.086057 0.916436 0.390819
vn 0.088303 0.916235 0.390789
vn 0.999301 0.022853 0.029588
vn 0.999301 0.022853 0.029587
vn 0.999301 0.022853 0.029587
vn 0.999301 0.022853 0.029588
vn 0.999024 0.035128 0.026768
vn 0.998808 0.041792 0.025234
vn 0.084845 -0.966531 0.242115
vn 0.084845 -0.966531 0.242115
vn 0.084845 -0.966531 0.242115
vn 0.084845 -0.966531 0.242115
vn -0.103324 -0.956421 0.273099
vn -0.104442 -0.955358 0.276374
vn -0.100158 -0.956702 0.273295
vn -0.100158 -0.956702 0.273295
vn -0.999301 -0.022853 -0.029588
vn -0.999301 -0.022853 -0.029588
vn 0.050789 -0.946276 -0.319347
vn 0.014018 -0.999655 -0.022210
vn -0.101607 -0.954048 0.281902
vn -0.101607 -0.954048 0.281901
vn -0.101607 -0.954048 0.281902
vn -0.101607 -0.954048 0.281901
vn -0.071671 -0.447272 0.891522
vn -0.085680 -0.064993 0.994201
vn -0.093098 0.296147 0.950594
vn -0.077630 0.921507 0.380524
vn -0.093122 0.920528 0.379417
vn -0.072129 0.936855 -0.342200
vn -0.090133 0.995731 0.019907
vn -0.027684 -0.019886 -0.999419
vn -0.038098 0.338924 -0.940042
vn -0.019162 -0.406433 -0.913480
vn 0.033392 -0.959806 0.278670
vn 0.100035 -0.959190 0.264477
vn 0.082799 -0.957728 0.275503
vn 0.082799 -0.957728 0.275503
vn 0.109852 -0.963948 0.242358
vn -0.082852 -0.943241 -0.321607
vn -0.082852 -0.943241 -0.321607
vn -0.083802 -0.940199 -0.330155
vn -0.083802 -0.940200 -0.330155
vn -0.083802 -0.940200 -0.330155
vn -0.083802 -0.940200 -0.330155
vn 0.099926 -0.944407 -0.313225
vn 0.099926 -0.944407 -0.313225
vn 0.100039 -0.954713 -0.280207
vn 0.100039 -0.954713 -0.280207
vn 0.100039 -0.954713 -0.280207
vn 0.100039 -0.954713 -0.280207
vn 0.998531 0.041577 0.034756
vn 0.999301 0.022853 0.029588
vn 0.999301 0.022853 0.029588
vn 0.109655 0.932842 -0.343193
vn 0.109713 0.931843 -0.345878
vn -0.056601 0.937863 -0.342359
vn -0.250976 0.912579 -0.322817
vn -0.249919 0.917859 -0.308342
vn -0.999301 -0.022853 -0.029587
vn -0.999301 -0.022853 -0.029587
vn -0.999301 -0.022853 -0.029588
vn -0.994229 0.087577 -0.061963
vn -0.994229 0.087577 -0.061963
vn -0.994229 0.087577 -0.061963
vn -0.994229 0.087577 -0.061963
vn 0.104555 -0.292040 -0.950674
vn 0.104555 -0.292040 -0.950674
vn 0.104555 -0.292040 -0.950674
vn 0.104555 -0.292040 -0.950674
vn 0.994198 -0.087324 0.062808
vn 0.994198 -0.087324 0.062808
vn 0.994198 -0.087324 0.062808
vn 0.994198 -0.087324 0.062808
vn -0.210940 0.297586 0.931100
vn -0.210940 0.297586 0.931100
vn -0.210940 0.297586 0.931100
vn -0.210940 0.297586 0.931100
vn 0.996282 -0.085704 -0.008818
vn 0.996282 -0.085704 -0.008818
vn 0.996282 -0.085704 -0.008818
vn 0.996282 -0.085704 -0.008818
vn 0.049526 -0.334840 0.940973
vn 0.049526 -0.334840 0.940973
vn 0.049526 -0.334840 0.940973
vn 0.049526 -0.334840 0.940973
vn -0.996264 0.085994 0.007985
vn -0.996264 0.085994 0.007985
vn -0.996264 0.085994 0.007985
vn -0.996264 0.085994 0.007985
vn -0.156875 0.339636 -0.927382
vn -0.156876 0.339636 -0.927382
vn -0.156876 0.339636 -0.927382
vn -0.156875 0.339636 -0.927382
vn -0.995848 -0.090305 -0.011526
vn -0.995847 -0.090305 -0.011526
vn -0.995847 -0.090305 -0.011526
vn -0.995847 -0.090305 -0.011526
vn 0.059527 -0.237640 -0.969528
vn 0.059527 -0.237640 -0.969528
vn 0.059527 -0.237640 -0.969527
vn 0.059527 -0.237640 -0.969528
vn 0.995764 0.090890 0.013888
vn 0.995764 0.090890 0.013888
vn -0.055805 0.238000 0.969661
vn -0.055805 0.238000 0.969661
vn -0.055805 0.238000 0.969661
vn -0.055805 0.238000 0.969661
vn 0.994769 0.090116 0.048113
vn 0.994769 0.090116 0.048113
vn 0.003407 -0.281289 0.959617
vn 0.003407 -0.281289 0.959617
vn 0.003407 -0.281289 0.959617
vn 0.003407 -0.281289 0.959617
vn -0.994715 -0.089425 -0.050448
vn -0.994715 -0.089425 -0.050448
vn -0.994715 -0.089425 -0.050448
vn -0.994715 -0.089425 -0.050448
vn 0.000316 0.281650 -0.959517
vn 0.000316 0.281650 -0.959517
vn 0.000316 0.281650 -0.959517
vn 0.000316 0.281650 -0.959517
f 1/1/1 13/21/2 42/59/3 35/50/4
f 19/29/5 26/39/6 66/91/7 55/77/8
f 37/53/9 38/54/10 18/27/11 7/7/12
f 59/82/13 60/83/14 22/33/15 21/32/16
f 61/85/17 62/86/18 40/57/19 23/35/20
f 58/80/21 59/81/22 21/31/23 36/51/24
f 55/76/25 56/78/26 28/42/27 19/28/28
f 5/5/29 16/25/30 34/49/31 27/41/32
f 25/38/33 32/46/34 64/88/35 65/90/36
f 29/43/37 30/44/38 15/24/39 3/3/40
f 41/58/41 42/59/3 13/21/2 2/2/42
f 15/24/39 30/44/38 31/45/43 4/4/44
f 65/89/45 66/91/7 26/39/6 25/37/46
f 33/47/47 34/49/31 16/25/30 6/6/48
f 18/27/11 38/54/10 39/55/49 8/8/50
f 23/34/51 22/33/15 60/83/14 61/84/52
f 53/73/53 54/75/54 15/24/55 4/4/56
f 31/45/57 52/72/58 53/74/59 4/4/60
f 2/2/61 49/69/62 50/70/63 41/58/64
f 13/22/65 48/67/66 49/68/67 2/10/68
f 47/66/69 48/67/66 13/22/65 1/9/70
f 75/100/71 76/101/72 77/102/73 78/103/74
f 43/60/75 44/62/76 29/43/77 3/3/78
f 3/3/79 15/24/55 54/75/54 43/61/80
f 56/78/26 57/79/81 20/30/82 28/42/27
f 68/92/83 67/93/84 69/94/85 70/95/86
f 9/15/87 14/23/88 30/44/38 29/43/37
f 31/45/43 30/44/38 14/23/88 12/20/89
f 12/20/90 51/71/91 52/72/58 31/45/57
f 63/87/92 64/88/35 32/46/34 24/36/93
f 17/26/94 34/49/31 33/47/47 11/18/95
f 27/41/32 34/49/31 17/26/94 10/17/96
f 45/63/97 46/64/98 35/50/99 9/15/100
f 57/79/81 58/80/21 36/51/24 20/30/82
f 10/17/96 17/26/94 38/54/10 37/53/9
f 39/55/49 38/54/10 17/26/94 11/18/95
f 24/36/93 40/57/19 62/86/18 63/87/92
f 41/58/64 50/70/63 51/71/91 12/20/90
f 14/23/88 42/59/3 41/58/41 12/20/89
f 35/50/4 42/59/3 14/23/88 9/15/87
f 19/28/28 28/42/27 44/62/76 43/60/75
f 45/63/97 44/62/76 28/42/27 20/30/82
f 20/30/82 36/51/24 46/64/98 45/63/97
f 47/65/101 46/64/98 36/51/24 21/31/23
f 21/32/16 22/33/15 48/67/66 47/66/69
f 49/68/67 48/67/66 22/33/15 23/34/51
f 50/70/63 49/69/62 23/35/20 40/57/19
f 51/71/91 50/70/63 40/57/19 24/36/93
f 52/72/58 51/71/91 24/36/93 32/46/34
f 53/74/59 52/72/58 32/46/34 25/38/33
f 25/37/46 26/39/6 54/75/54 53/73/53
f 43/61/80 54/75/54 26/39/6 19/29/5
f 27/40/102 56/78/26 55/76/25 5/14/103
f 72/96/104 71/97/105 73/98/106 74/99/107
f 37/52/108 58/80/21 57/79/81 10/16/109
f 79/104/110 80/105/111 81/106/112 82/107/113
f 7/7/114 18/27/115 60/83/14 59/82/13
f 61/84/52 60/83/14 18/27/115 8/8/116
f 39/56/117 62/86/18 61/85/17 8/11/118
f 63/87/92 62/86/18 39/56/117 11/19/119
f 33/48/120 64/88/35 63/87/92 11/19/119
f 65/90/36 64/88/35 33/48/120 6/12/121
f 16/25/122 66/91/7 65/89/45 6/6/123
f 55/77/8 66/91/7 16/25/122 5/5/124
f 29/43/125 44/62/126 67/93/127 68/92/128
f 44/62/129 45/63/130 69/94/131 67/93/132
f 45/63/133 9/15/134 70/95/135 69/94/136
f 9/15/137 29/43/138 68/92/139 70/95/140
f 10/16/141 57/79/142 71/97/143 72/96/144
f 57/79/145 56/78/146 73/98/147 71/97/148
f 56/78/149 27/40/150 74/99/151 73/98/152
f 27/40/153 10/16/154 72/96/155 74/99/156
f 35/50/157 46/64/158 76/101/159 75/100/160
f 46/64/161 47/65/162 77/102/163 76/101/164
f 47/65/69 1/1/70 78/103/165 77/102/166
f 1/1/167 35/50/168 75/100/169 78/103/170
f 7/13/114 59/81/13 80/105/171 79/104/172
f 59/81/173 58/80/174 81/106/175 80/105/176
f 58/80/177 37/52/178 82/107/179 81/106/180
f 37/52/181 7/13/182 79/104/183 82/107/184
